<?xml version="1.0" encoding="utf-8"?>
<!-- Generator: Adobe Illustrator 24.3.0, SVG Export Plug-In . SVG Version: 6.00 Build 0)  -->
<svg version="1.1" id="Layer_1" xmlns="http://www.w3.org/2000/svg" xmlns:xlink="http://www.w3.org/1999/xlink" x="0px" y="0px"
	 viewBox="0 0 19 19" style="enable-background:new 0 0 19 19;" xml:space="preserve">
<style type="text/css">
	.st0{fill:#717171;}
</style>
<path class="st0" d="M16,8H3V4c0-0.6,0.4-1,1-1h11c0.6,0,1,0.4,1,1V8z M4,7h11V4H4V7z"/>
<path class="st0" d="M7,16H4c-0.6,0-1-0.4-1-1V9h4V16z M4,10v5h2v-5H4z"/>
<path class="st0" d="M15,16H8V9h8v6C16,15.6,15.6,16,15,16z M9,15h6v-5H9V15z"/>
</svg>
