<?xml version="1.0" standalone="no"?>
<!DOCTYPE svg PUBLIC "-//W3C//DTD SVG 1.1//EN" "http://www.w3.org/Graphics/SVG/1.1/DTD/svg11.dtd" >
<svg xmlns="http://www.w3.org/2000/svg">
<defs>
  <font id="Nucleo" horiz-adv-x="315.0769230769231">
    <font-face font-family="Nucleo"
      units-per-em="256" ascent="256"
      descent="0" />
    <missing-glyph horiz-adv-x="0" />
    <glyph glyph-name="arrow-down"
      unicode="&#xEA03;"
      horiz-adv-x="256" d="M106.6666666666667 72.832V234.6666666666667A21.3333333333333 21.3333333333333 0 0 0 149.3333333333333 234.6666666666667V72.832L198.2506666666666 121.7493333333333A21.3333333333333 21.3333333333333 0 0 0 228.416 91.584L143.0826666666666 6.2506666666666A21.3333333333333 21.3333333333333 0 0 0 112.9173333333333 6.2506666666666L27.584 91.584A21.3333333333333 21.3333333333333 0 0 0 57.7493333333333 121.7493333333333L106.6666666666667 72.832z" />
    <glyph glyph-name="chevron-left"
      unicode="&#xEA05;"
      horiz-adv-x="256" d="M185.7493333333334 228.416A21.3333333333333 21.3333333333333 0 0 0 185.7493333333334 198.2506666666667L115.4986666666667 128L185.7493333333333 57.7493333333333A21.3333333333333 21.3333333333333 0 0 0 155.584 27.584L70.2506666666667 112.9173333333333A21.3333333333333 21.3333333333333 0 0 0 70.2506666666667 143.0826666666667L155.584 228.416A21.3333333333333 21.3333333333333 0 0 0 185.7493333333333 228.416z" />
    <glyph glyph-name="check"
      unicode="&#xEA07;"
      horiz-adv-x="256" d="M219.584 228.416L85.3333333333333 94.1653333333333L36.416 143.0826666666667A21.3333333333333 21.3333333333333 0 0 1 6.2506666666667 112.9173333333334L70.2506666666667 48.9173333333333A21.3333333333333 21.3333333333333 0 0 1 100.416 48.9173333333333L249.7493333333333 198.2506666666667A21.3333333333333 21.3333333333333 0 0 1 219.584 228.416z" />
    <glyph glyph-name="clock"
      unicode="&#xEA08;"
      horiz-adv-x="256" d="M149.3333333333333 170.6666666666667A21.3333333333333 21.3333333333333 0 0 1 106.6666666666667 170.6666666666667V106.6666666666667H170.6666666666667A21.3333333333333 21.3333333333333 0 0 1 170.6666666666667 149.3333333333334H149.3333333333333V170.6666666666667zM152.9813333333334 2.4746666666667A128 128 0 0 0 56.896 21.568V21.5893333333333A128 128 0 0 0 199.104 234.4533333333333A128 128 0 0 0 152.9813333333334 2.4746666666667zM144.64 211.6906666666667A85.3333333333333 85.3333333333333 0 0 1 80.576 198.9546666666667H80.5973333333333A85.3333333333333 85.3333333333333 0 0 1 175.4026666666667 57.0453333333333A85.3333333333333 85.3333333333333 0 0 1 144.64 211.712z" />
    <glyph glyph-name="dashboard-default"
      unicode="&#xEA09;"
      horiz-adv-x="256" d="M0 256H64V192H0V256zM96 256H160V192H96V256zM256 256H192V192H256V256zM0 160H64V96H0V160zM64 64H0V0H64V64zM85.3333333333333 85.3333333333333C85.3333333333333 132.2666666666667 123.7333333333333 170.6666666666667 170.6666666666667 170.6666666666667S256 132.2666666666667 256 85.3333333333333S217.6 0 170.6666666666667 0S85.3333333333334 38.4 85.3333333333334 85.3333333333333zM123.7333333333333 85.3333333333333L160 49.0666666666667L217.6 106.6666666666667L202.6666666666666 121.6L160 78.9333333333334L138.6666666666666 100.2666666666667L123.7333333333333 85.3333333333334z" />
    <glyph glyph-name="dashboard"
      unicode="&#xEA0A;"
      horiz-adv-x="256" d="M64 256H0V192H64V256zM160 256H96V192H160V256zM192 256H256V192H192V256zM64 160H0V96H64V160zM96 160H160V96H96V160zM256 160H192V96H256V160zM0 64H64V0H0V64zM160 64H96V0H160V64zM192 64H256V0H192V64z" />
    <glyph glyph-name="edit"
      unicode="&#xEA0B;"
      horiz-adv-x="256" d="M200.832 256A21.3333333333333 21.3333333333333 0 0 0 215.9146666666667 249.7493333333334L249.7493333333333 215.9146666666667A21.3333333333333 21.3333333333333 0 0 0 249.7493333333333 185.7493333333334L228.416 164.416L164.416 228.416L185.7493333333333 249.7493333333334A21.3333333333333 21.3333333333333 0 0 0 200.832 256zM142.976 206.976L21.3333333333333 85.3333333333333L0 0L85.3333333333333 21.3333333333333L206.976 142.976L142.976 206.976z" />
    <glyph glyph-name="caret-down"
      unicode="&#xEA0C;"
      horiz-adv-x="256" d="M207.5733333333333 146.624A8.7893333333333 8.7893333333333 0 0 0 210.2826666666667 140.1813333333333A8.7893333333333 8.7893333333333 0 0 0 207.5733333333333 133.7813333333334L143.5733333333333 69.7813333333334A8.7893333333333 8.7893333333333 0 0 0 137.152 67.0506666666667A8.7893333333333 8.7893333333333 0 0 0 130.7093333333333 69.76L66.7093333333333 133.76A8.7893333333333 8.7893333333333 0 0 0 64 140.1813333333333C64 142.6773333333333 64.896 144.8106666666667 66.7093333333333 146.624A8.7893333333333 8.7893333333333 0 0 0 73.1733333333333 149.3333333333334H201.1733333333334C203.648 149.3333333333334 205.7813333333334 148.4373333333334 207.5733333333334 146.624z" />
    <glyph glyph-name="info"
      unicode="&#xEA0E;"
      horiz-adv-x="256" d="M0 128C0 198.4 57.6 256 128 256S256 198.4 256 128S198.4 0 128 0S0 57.6 0 128zM106.6666666666667 149.3333333333333V42.6666666666667H149.3333333333333V149.3333333333334H106.6666666666667zM128 170.6666666666667A21.3333333333333 21.3333333333333 0 1 1 128 213.3333333333333A21.3333333333333 21.3333333333333 0 0 1 128 170.6666666666667z" />
    <glyph glyph-name="kebab"
      unicode="&#xEA0F;"
      horiz-adv-x="256" d="M128 64A32 32 0 1 0 128 0A32 32 0 0 0 128 64zM160 128A32 32 0 1 1 96 128A32 32 0 0 1 160 128zM160 224A32 32 0 1 1 96 224A32 32 0 0 1 160 224z" />
    <glyph glyph-name="link"
      unicode="&#xEA10;"
      horiz-adv-x="256" d="M133.2266666666667 235.4133333333334L100.8426666666667 203.8186666666667A16 16 0 0 1 123.1573333333334 180.8853333333333L155.7333333333333 212.6293333333333A40 40 0 1 0 212.1386666666667 155.9253333333334L180.544 123.52A16 16 0 1 1 203.456 101.184L234.9226666666667 133.44A72.128 72.128 0 0 1 234.9226666666667 235.264A73.856 73.856 0 0 1 133.2266666666667 235.4133333333334zM132.8426666666667 75.8186666666667L100.2666666666667 44.0533333333333A39.9573333333333 39.9573333333333 0 0 0 34.7306666666667 57.024A40 40 0 0 0 43.8613333333333 100.7786666666667L75.456 133.184A16 16 0 0 1 52.544 155.52L21.0773333333333 123.264A72 72 0 0 1 122.7733333333333 21.3333333333333L155.1573333333333 52.8853333333333A16 16 0 0 1 132.8426666666667 75.8186666666667zM74.0266666666667 74.368A15.9573333333333 15.9573333333333 0 0 1 96.64 74.368L181.9733333333333 159.7013333333334A16 16 0 1 1 159.36 182.336L74.0266666666667 97.0026666666667A16 16 0 0 1 74.0266666666667 74.3893333333334z" />
    <glyph glyph-name="list"
      unicode="&#xEA11;"
      horiz-adv-x="256" d="M0 234.6666666666667H85.3333333333333V149.3333333333334H0V234.6666666666667zM128 213.3333333333334H256V170.6666666666667H128V213.3333333333334zM85.3333333333333 106.6666666666667H0V21.3333333333334H85.3333333333333V106.6666666666667zM128 85.3333333333333H256V42.6666666666667H128V85.3333333333333z" />
    <glyph glyph-name="logout"
      unicode="&#xEA12;"
      horiz-adv-x="256" d="M128 213.3333333333334H42.6666666666667V42.6666666666667H128V0H42.6666666666667A42.6666666666667 42.6666666666667 0 0 0 0 42.6666666666667V213.3333333333334A42.6666666666667 42.6666666666667 0 0 0 42.6666666666667 256H128V213.3333333333334zM85.3333333333333 149.3333333333334H149.3333333333333V213.3333333333334L256 128L149.3333333333333 42.6666666666667V106.6666666666667H85.3333333333333V149.3333333333334z" />
    <glyph glyph-name="minus"
      unicode="&#xEA13;"
      horiz-adv-x="256" d="M234.6666666666667 106.6666666666667H21.3333333333333A21.3333333333333 21.3333333333333 0 0 0 21.3333333333333 149.3333333333334H234.6666666666667A21.3333333333333 21.3333333333333 0 1 0 234.6666666666667 106.6666666666667z" />
    <glyph glyph-name="plus-sm"
      unicode="&#xEA15;"
      horiz-adv-x="256" d="M106.6666666666667 106.6666666666667V42.6666666666667H149.3333333333333V106.6666666666667H213.3333333333333V149.3333333333334H149.3333333333333V213.3333333333334H106.6666666666667V149.3333333333334H42.6666666666667V106.6666666666667H106.6666666666667z" />
    <glyph glyph-name="refresh"
      unicode="&#xEA16;"
      horiz-adv-x="256" d="M57.8773333333333 235.0933333333334A128 128 0 0 0 128 256A126.656 126.656 0 0 0 218.2186666666667 218.624L256 256V135.7013333333334L146.6666666666667 147.7973333333334L187.6053333333334 188.3306666666667A84.1813333333333 84.1813333333333 0 0 1 128 213.3333333333334A85.3333333333333 85.3333333333333 0 0 1 49.7493333333333 162.1333333333333L10.6666666666667 179.2A128 128 0 0 0 57.8773333333333 235.0933333333334zM95.7013333333333 49.216C105.9413333333333 44.9493333333333 116.9066666666667 42.7093333333334 128 42.6666666666667A85.3333333333333 85.3333333333333 0 0 1 206.2506666666666 93.8666666666667L245.3333333333333 76.8A128 128 0 0 0 128 0A126.656 126.656 0 0 0 37.7813333333333 37.376L0 0V120.2986666666667L109.3333333333333 108.2026666666667L68.3946666666667 67.6693333333334C76.2026666666667 59.776 85.4613333333333 53.504 95.7013333333333 49.216z" />
    <glyph glyph-name="plus"
      unicode="&#xEA17;"
      horiz-adv-x="256" d="M234.6666666666667 149.3333333333334H149.3333333333333V234.6666666666667A21.3333333333333 21.3333333333333 0 0 1 106.6666666666667 234.6666666666667V149.3333333333334H21.3333333333333A21.3333333333333 21.3333333333333 0 0 1 21.3333333333333 106.6666666666667H106.6666666666667V21.3333333333334A21.3333333333333 21.3333333333333 0 1 1 149.3333333333333 21.3333333333334V106.6666666666667H234.6666666666667A21.3333333333333 21.3333333333333 0 1 1 234.6666666666667 149.3333333333334z" />
    <glyph glyph-name="settings"
      unicode="&#xEA19;"
      horiz-adv-x="256" d="M209.0666666666667 178.9226666666667L233.6 203.4346666666667L203.4346666666667 233.6L178.9226666666667 209.0666666666667A94.784 94.784 0 0 1 149.3333333333333 221.44V256H106.6666666666667V221.44C96.1706666666667 219.0293333333334 86.1653333333333 214.8266666666667 77.0773333333333 209.0666666666667L52.5653333333333 233.6L22.4 203.4346666666667L46.9333333333333 178.9226666666667C41.1733333333333 169.8346666666667 36.9706666666667 159.8293333333334 34.56 149.3333333333334H0V106.6666666666667H34.56C36.9706666666667 96.1706666666667 41.1733333333333 86.1653333333334 46.9333333333333 77.0773333333333L22.4 52.5653333333333L52.5653333333333 22.4L77.0773333333333 46.9333333333333C86.1653333333333 41.1733333333333 96.1706666666667 36.9706666666667 106.6666666666667 34.56V0H149.3333333333333V34.56C159.8293333333333 36.9706666666667 169.8346666666666 41.1733333333333 178.9226666666667 46.9333333333333L203.4346666666667 22.4L233.6 52.5653333333333L209.0666666666667 77.0773333333333C214.8266666666667 86.1653333333333 219.0293333333334 96.1706666666667 221.44 106.6666666666667H256V149.3333333333334H221.44A94.7626666666667 94.7626666666667 0 0 1 209.0666666666667 178.9226666666667zM128 85.3333333333333A42.6666666666667 42.6666666666667 0 1 0 128 170.6666666666667A42.6666666666667 42.6666666666667 0 0 0 128 85.3333333333333z" />
    <glyph glyph-name="arrow-right-double"
      unicode="&#xEA1A;"
      horiz-adv-x="256" d="M80.3626666666667 205.696A21.3333333333333 21.3333333333333 0 1 1 47.6373333333333 178.304L100.1813333333333 115.5626666666667L47.6373333333333 52.8A21.3333333333333 21.3333333333333 0 1 1 80.3626666666667 25.408L144.3626666666667 101.8666666666667A21.3333333333333 21.3333333333333 0 0 1 144.3626666666667 129.2586666666667L80.3626666666667 205.696zM172.8 205.696A21.3333333333333 21.3333333333333 0 1 1 140.096 178.304L192.6186666666667 115.5626666666667L140.096 52.8A21.3333333333333 21.3333333333333 0 1 1 172.8 25.408L236.8 101.8666666666667A21.3333333333333 21.3333333333333 0 0 1 236.8 129.2586666666667L172.8 205.696z" />
    <glyph glyph-name="reports"
      unicode="&#xEA1B;"
      horiz-adv-x="256" d="M256 234.6666666666667H213.3333333333334V21.3333333333333H256V234.6666666666667zM21.3333333333333 192H64V21.3333333333333H21.3333333333333V192zM192 192H149.3333333333333V21.3333333333333H192V192zM128 128H85.3333333333333V21.3333333333333H128V128z" />
    <glyph glyph-name="user"
      unicode="&#xEA1C;"
      horiz-adv-x="256" d="M181.3333333333333 202.6666666666667A53.3333333333333 53.3333333333333 0 1 0 74.6666666666667 202.6666666666667A53.3333333333333 53.3333333333333 0 0 0 181.3333333333333 202.6666666666667zM87.1893333333333 119.8933333333334A106.6666666666667 106.6666666666667 0 0 0 234.6666666666667 21.3333333333333H21.3333333333333A106.6666666666667 106.6666666666667 0 0 0 87.1893333333333 119.8933333333334z" />
    <glyph glyph-name="upload"
      unicode="&#xEA1D;"
      horiz-adv-x="256" d="M149.3333333333333 149.3333333333334V85.3333333333333H106.6666666666667V149.3333333333334H42.6666666666667L128 256L213.3333333333333 149.3333333333334H149.3333333333333zM6.2506666666667 36.416A21.3333333333333 21.3333333333333 0 0 0 21.3333333333333 42.6666666666667H234.6666666666667A21.3333333333333 21.3333333333333 0 0 0 234.6666666666667 0H21.3333333333333A21.3333333333333 21.3333333333333 0 0 0 6.2506666666667 36.416z" />
    <glyph glyph-name="user-group"
      unicode="&#xEA1E;"
      horiz-adv-x="256" d="M112 205.3333333333334A40 40 0 1 0 32 205.3333333333334A40 40 0 0 0 112 205.3333333333334zM132.2026666666667 128.8106666666667C139.7546666666667 122.8373333333333 144 113.6213333333334 144 103.9573333333333V21.3333333333333H0V103.9573333333333C0 113.6213333333333 4.2453333333333 122.816 11.7973333333333 128.8106666666667A95.616 95.616 0 0 0 72.0213333333333 149.3333333333334C100.5866666666667 149.3333333333334 120.6613333333333 138.0053333333334 132.224 128.8106666666667zM184 165.3333333333334A40 40 0 1 1 184 245.3333333333334A40 40 0 0 1 184 165.3333333333334zM184 149.3333333333334C212.5653333333334 149.3333333333334 232.64 138.0053333333334 244.2026666666667 128.8106666666667C251.7546666666667 122.8373333333333 256 113.6213333333334 256 103.9573333333333V21.3333333333333H176V103.9573333333333C176 119.9573333333334 170.0053333333334 134.784 159.7013333333334 146.304A99.2853333333333 99.2853333333333 0 0 0 184 149.3333333333334z" />
    <glyph glyph-name="arrow-left-double"
      unicode="&#xEA1F;"
      horiz-adv-x="256" d="M182.7413333333333 205.696A21.3333333333333 21.3333333333333 0 1 0 215.4666666666667 178.304L162.9226666666667 115.5626666666667L215.4666666666667 52.8A21.3333333333333 21.3333333333333 0 1 0 182.7413333333333 25.408L118.7413333333333 101.8666666666667A21.3333333333333 21.3333333333333 0 0 0 118.7413333333333 129.2586666666667L182.7413333333333 205.696zM90.304 205.696A21.3333333333333 21.3333333333333 0 1 0 123.0293333333333 178.304L70.4853333333333 115.5626666666667L123.0293333333333 52.8A21.3333333333333 21.3333333333333 0 0 0 90.304 25.408L26.304 101.8666666666667A21.3333333333333 21.3333333333333 0 0 0 26.304 129.2586666666667L90.304 205.696z" />
    <glyph glyph-name="chevron-up"
      unicode="&#xEA20;"
      horiz-adv-x="256" d="M228.416 70.2506666666667A21.3333333333333 21.3333333333333 0 0 0 198.2506666666667 70.2506666666667L128 140.5013333333334L57.7493333333333 70.2506666666667A21.3333333333333 21.3333333333333 0 0 0 27.584 100.416L112.9173333333333 185.7493333333333A21.3333333333333 21.3333333333333 0 0 0 143.0826666666667 185.7493333333333L228.416 100.416A21.3333333333333 21.3333333333333 0 0 0 228.416 70.2506666666667z" />
    <glyph glyph-name="caret-up"
      unicode="&#xEA22;"
      horiz-adv-x="256" d="M207.5733333333333 103.9573333333333A8.7893333333333 8.7893333333333 0 0 0 210.2826666666667 97.5146666666667A8.7893333333333 8.7893333333333 0 0 0 207.5733333333333 91.1146666666667A8.7893333333333 8.7893333333333 0 0 0 201.152 88.384H73.152A8.7893333333333 8.7893333333333 0 0 0 66.7093333333333 91.0933333333333A8.7893333333333 8.7893333333333 0 0 0 64 97.5146666666667C64 100.0106666666667 64.896 102.144 66.7093333333333 103.9573333333333L130.7093333333334 167.9573333333334A8.7893333333333 8.7893333333333 0 0 0 137.1733333333333 170.6666666666667C139.648 170.6666666666667 141.7813333333333 169.7706666666667 143.5733333333333 167.9573333333334L207.5733333333333 103.9573333333333z" />
    <glyph glyph-name="star-fill"
      unicode="&#xEA23;"
      horiz-adv-x="256" d="M246.8693333333333 164.9066666666667L171.3493333333333 175.872L137.5573333333333 244.3093333333334A11.1146666666667 11.1146666666667 0 0 1 118.3573333333333 244.3093333333334L84.6506666666667 175.872L9.1306666666667 164.9066666666667A10.6666666666667 10.6666666666667 0 0 1 3.2213333333333 146.7093333333334L57.8773333333333 93.376L44.9493333333333 18.1546666666667A10.6666666666667 10.6666666666667 0 0 1 60.4373333333333 6.912L128 42.496L195.5626666666667 6.9760000000001A10.6666666666667 10.6666666666667 0 0 1 211.0506666666667 18.2186666666667L198.1226666666667 93.44L252.7786666666667 146.7733333333333A10.6666666666667 10.6666666666667 0 0 1 246.8693333333333 164.9706666666667V164.9066666666667z" />
    <glyph glyph-name="download"
      unicode="&#xEA24;"
      horiz-adv-x="256" d="M234.6666666666667 42.6666666666667H21.3333333333333A21.3333333333333 21.3333333333333 0 0 1 21.3333333333333 0H234.6666666666667A21.3333333333333 21.3333333333333 0 0 1 234.6666666666667 42.6666666666667zM213.3333333333333 192H149.3333333333333V256H106.6666666666667V192H42.6666666666667L128 85.3333333333333L213.3333333333333 192z" />
    <glyph glyph-name="close"
      unicode="&#xEA25;"
      horiz-adv-x="256" d="M228.416 228.416A21.3333333333333 21.3333333333333 0 0 1 198.2506666666667 228.416L128 158.1653333333333L57.7493333333333 228.416A21.3333333333333 21.3333333333333 0 0 1 27.584 198.2506666666667L97.8346666666667 128L27.584 57.7493333333334A21.3333333333333 21.3333333333333 0 1 1 57.7493333333333 27.584L128 97.8346666666667L198.2506666666667 27.584A21.3333333333333 21.3333333333333 0 0 1 228.416 57.7493333333334L158.1653333333333 128L228.416 198.2506666666667A21.3333333333333 21.3333333333333 0 0 1 228.416 228.416z" />
    <glyph glyph-name="tile-view"
      unicode="&#xEA26;"
      horiz-adv-x="256" d="M234.6666666666667 64A21.3333333333333 21.3333333333333 0 1 0 192 64V234.6666666666667A21.3333333333333 21.3333333333333 0 1 0 234.6666666666667 234.6666666666667V64zM21.3333333333333 21.3333333333333A21.3333333333333 21.3333333333333 0 1 1 64 21.3333333333333V234.6666666666667A21.3333333333333 21.3333333333333 0 1 1 21.3333333333333 234.6666666666667V21.3333333333333zM106.6666666666667 106.6666666666667A21.3333333333333 21.3333333333333 0 1 1 149.3333333333333 106.6666666666667V234.6666666666667A21.3333333333333 21.3333333333333 0 1 1 106.6666666666667 234.6666666666667V106.6666666666667z" />
    <glyph glyph-name="list-view"
      unicode="&#xEA27;"
      horiz-adv-x="256" d="M106.6666666666667 234.6666666666667H234.6666666666667A21.3333333333333 21.3333333333333 0 1 0 234.6666666666667 192H106.6666666666667A21.3333333333333 21.3333333333333 0 0 0 106.6666666666667 234.6666666666667zM42.6666666666667 213.3333333333334A21.3333333333333 21.3333333333333 0 1 0 0 213.3333333333334A21.3333333333333 21.3333333333333 0 0 0 42.6666666666667 213.3333333333334zM106.6666666666667 149.3333333333334H234.6666666666667A21.3333333333333 21.3333333333333 0 1 0 234.6666666666667 106.6666666666667H106.6666666666667A21.3333333333333 21.3333333333333 0 0 0 106.6666666666667 149.3333333333334zM42.6666666666667 128A21.3333333333333 21.3333333333333 0 1 0 0 128A21.3333333333333 21.3333333333333 0 0 0 42.6666666666667 128zM106.6666666666667 64H234.6666666666667A21.3333333333333 21.3333333333333 0 1 0 234.6666666666667 21.3333333333333H106.6666666666667A21.3333333333333 21.3333333333333 0 1 0 106.6666666666667 64zM42.6666666666667 42.6666666666667A21.3333333333333 21.3333333333333 0 1 0 0 42.6666666666667A21.3333333333333 21.3333333333333 0 0 0 42.6666666666667 42.6666666666667z" />
    <glyph glyph-name="thumbs-down"
      unicode="&#xEA28;"
      horiz-adv-x="256" d="M212.2666666666667 96.2133333333333H143.5093333333333V32.2986666666667A27.968 27.968 0 0 0 111.5093333333333 0.3413333333334A10.6666666666667 10.6666666666667 0 0 0 101.9306666666667 8.32L63.9573333333333 128.1706666666667V256H201.0666666666667A42.8373333333333 42.8373333333333 0 0 0 242.6453333333334 219.2426666666667L255.4453333333334 145.7493333333334A40.448 40.448 0 0 0 245.8453333333334 112.192A40.1706666666667 40.1706666666667 0 0 0 212.2666666666667 96.192zM42.6453333333333 128.1706666666667H0V256H42.6453333333333V128.1706666666667z" />
    <glyph glyph-name="warning-circle"
      unicode="&#xEA29;"
      horiz-adv-x="256" d="M256 128C256 57.6 198.4 0 128 0S0 57.6 0 128S57.6 256 128 256S256 198.4 256 128zM149.3333333333333 106.6666666666667V213.3333333333334H106.6666666666667V106.6666666666667H149.3333333333333zM149.3333333333333 42.6666666666667V85.3333333333333H106.6666666666667V42.6666666666667H149.3333333333333z" />
    <glyph glyph-name="phone"
      unicode="&#xEA2A;"
      horiz-adv-x="256" d="M241.3866666666667 89.6L191.1893333333333 111.872A24.6826666666667 24.6826666666667 0 0 1 162.0053333333333 104.7893333333334L146.8586666666666 85.8453333333334A198.8266666666667 198.8266666666667 0 0 0 85.8453333333333 146.8373333333334L104.7893333333333 161.9626666666667A24.6613333333333 24.6613333333333 0 0 1 111.8933333333333 191.1893333333334L89.6 241.3653333333334A24.6186666666667 24.6186666666667 0 0 1 60.9066666666667 255.2106666666667L18.4746666666667 244.1813333333334A24.7253333333333 24.7253333333333 0 0 1 0.2346666666667 216.8746666666667A255.616 255.616 0 0 1 216.9173333333333 0.2346666666667A24.704 24.704 0 0 1 244.2026666666667 18.4533333333333L255.2106666666667 60.9066666666666A24.5333333333333 24.5333333333333 0 0 1 241.3866666666667 89.6z" />
    <glyph glyph-name="email"
      unicode="&#xEA2B;"
      horiz-adv-x="256" d="M0 178.1333333333333V61.632C0 38.9333333333333 18.688 21.3333333333333 40.7466666666667 21.3333333333333H215.2533333333333C237.312 21.3333333333333 256 38.9333333333333 256 61.632V170.368V194.368C256 217.0666666666667 237.312 234.6666666666667 215.2533333333333 234.6666666666667H40.7466666666667C18.6666666666667 234.6666666666667 0 217.0666666666667 0 194.368V178.1333333333333zM42.6666666666667 189.2053333333333V192H213.3333333333333V189.2053333333333L128 132.3093333333334L42.6666666666667 189.2053333333333zM213.3333333333333 137.92V64H42.6666666666667V137.92L116.16 88.9173333333333A21.3333333333333 21.3333333333333 0 0 1 139.84 88.9173333333333L213.3333333333333 137.92z" />
    <glyph glyph-name="document"
      unicode="&#xEA2C;"
      horiz-adv-x="256" d="M0 234.6666666666667A21.3333333333333 21.3333333333333 0 0 0 21.3333333333333 256H213.3333333333334A21.3333333333333 21.3333333333333 0 0 0 234.6666666666667 234.6666666666667V21.3333333333333A21.3333333333333 21.3333333333333 0 0 0 213.3333333333334 0H21.3333333333333A21.3333333333333 21.3333333333333 0 0 0 0 21.3333333333333V234.6666666666667zM42.6666666666667 213.3333333333334V42.6666666666667H192V213.3333333333334H42.6666666666667zM64 149.3333333333334A21.3333333333333 21.3333333333333 0 0 0 85.3333333333333 170.6666666666667H149.3333333333333A21.3333333333333 21.3333333333333 0 0 0 149.3333333333333 128H85.3333333333333A21.3333333333333 21.3333333333333 0 0 0 64 149.3333333333333zM64 85.3333333333333A21.3333333333333 21.3333333333333 0 0 0 85.3333333333333 106.6666666666667H149.3333333333333A21.3333333333333 21.3333333333333 0 0 0 149.3333333333333 64H85.3333333333333A21.3333333333333 21.3333333333333 0 0 0 64 85.3333333333334z" />
    <glyph glyph-name="note"
      unicode="&#xEA2D;"
      horiz-adv-x="256" d="M185.7493333333334 6.2506666666667A21.3333333333333 21.3333333333333 0 0 0 170.6666666666667 0H21.3333333333333A21.3333333333333 21.3333333333333 0 0 0 0 21.3333333333333V234.6666666666667A21.3333333333333 21.3333333333333 0 0 0 21.3333333333333 256H234.6666666666667A21.3333333333333 21.3333333333333 0 0 0 256 234.6666666666667V85.3333333333333A21.3333333333333 21.3333333333333 0 0 0 249.7493333333334 70.2506666666667L185.7493333333334 6.2506666666667zM213.3333333333333 213.3333333333334H42.6666666666667V42.6666666666667H149.3333333333333V106.6666666666667H213.3333333333333V213.3333333333334z" />
    <glyph glyph-name="preview"
      unicode="&#xEA2E;"
      horiz-adv-x="256" d="M2.2613333333333 137.5573333333334C4.4586666666667 141.8666666666667 51.84 234.6666666666667 128 234.6666666666667C202.6026666666667 234.6666666666667 249.6 145.6 253.6533333333333 137.9413333333334L253.8666666666667 137.536A21.3333333333333 21.3333333333333 0 0 0 253.6533333333333 118.0586666666667C249.6 110.3786666666667 202.6026666666667 21.3333333333333 128 21.3333333333333C51.84 21.3333333333333 4.4586666666667 114.1333333333333 2.2613333333333 118.4426666666667L2.24 118.464A21.3333333333333 21.3333333333333 0 0 0 2.24 137.536V137.5573333333333zM45.824 127.872C60.352 103.9146666666667 92.0746666666667 64 128 64C166.5493333333333 64 198.016 108.288 210.176 128.128C195.648 152.064 163.9253333333333 192 128 192C89.4506666666667 192 57.984 147.712 45.824 127.872zM160 128A32 32 0 1 0 96 128A32 32 0 0 0 160 128z" />
    <glyph glyph-name="launch"
      unicode="&#xEA30;"
      horiz-adv-x="256" d="M176.9173333333333 207.0826666666667L97.8346666666667 128L128 97.8346666666667L207.0826666666667 176.9173333333334L256 128V256H128L176.9173333333333 207.0826666666667zM213.3333333333333 42.6666666666667H42.6666666666667V213.3333333333334H85.3333333333333V256H42.6666666666667A42.6666666666667 42.6666666666667 0 0 1 0 213.3333333333334V42.6666666666667A42.6666666666667 42.6666666666667 0 0 1 42.6666666666667 0H213.3333333333333A42.6666666666667 42.6666666666667 0 0 1 256 42.6666666666667V85.3333333333333H213.3333333333333V42.6666666666667z" />
    <glyph glyph-name="lock"
      unicode="&#xEA32;"
      horiz-adv-x="256" d="M192 149.3333333333334H213.3333333333334A21.3333333333333 21.3333333333333 0 0 0 234.6666666666667 128V21.3333333333334A21.3333333333333 21.3333333333333 0 0 0 213.3333333333334 0H42.6666666666667A21.3333333333333 21.3333333333333 0 0 0 21.3333333333333 21.3333333333334V128A21.3333333333333 21.3333333333333 0 0 0 42.6666666666667 149.3333333333333H64V192A64 64 0 1 0 192 192V149.3333333333334zM106.6666666666667 192V149.3333333333334H149.3333333333333V192A21.3333333333333 21.3333333333333 0 0 1 106.6666666666667 192zM192 42.6666666666667V106.6666666666667H64V42.6666666666667H192z" />
    <glyph glyph-name="arrow-top-right"
      unicode="&#xEA33;"
      horiz-adv-x="256" d="M234.6666666666667 256H106.6666666666667C93.8666666666667 256 85.3333333333333 247.4666666666667 85.3333333333333 234.6666666666667S93.8666666666667 213.3333333333334 106.6666666666667 213.3333333333334H183.4666666666667L6.4 36.2666666666667C-2.1333333333333 27.7333333333333 -2.1333333333333 14.9333333333333 6.4 6.4C14.9333333333333 -2.1333333333334 27.7333333333333 -2.1333333333334 36.2666666666667 6.4L213.3333333333333 183.4666666666667V106.6666666666667C213.3333333333333 93.8666666666667 221.8666666666667 85.3333333333333 234.6666666666667 85.3333333333333S256 93.8666666666667 256 106.6666666666667V234.6666666666667C256 247.4666666666667 247.4666666666667 256 234.6666666666667 256z" />
    <glyph glyph-name="full-screen"
      unicode="&#xEA34;"
      horiz-adv-x="256" d="M149.3333333333333 256H234.6666666666667A21.3333333333333 21.3333333333333 0 0 0 256 234.6666666666667V149.3333333333334H213.3333333333333V213.3333333333334H149.3333333333333V256zM42.6666666666667 106.6666666666667V42.6666666666667H106.6666666666667V0H21.3333333333333A21.3333333333333 21.3333333333333 0 0 0 0 21.3333333333334V106.6666666666667H42.6666666666667zM0 234.6666666666667V149.3333333333334H42.6666666666667V213.3333333333334H106.6666666666667V256H21.3333333333333A21.3333333333333 21.3333333333333 0 0 1 0 234.6666666666667zM149.3333333333333 42.6666666666667H213.3333333333333V106.6666666666667H256V21.3333333333334A21.3333333333333 21.3333333333333 0 0 0 234.6666666666667 0H149.3333333333333V42.6666666666667z" />
    <glyph glyph-name="full-screen-exit"
      unicode="&#xEA35;"
      horiz-adv-x="256" d="M256 149.3333333333334H170.6666666666667C164.2666666666667 149.3333333333334 160 151.4666666666667 155.7333333333333 155.7333333333334C151.4666666666667 160 149.3333333333333 164.2666666666667 149.3333333333333 170.6666666666667V256H192V192H256V149.3333333333334zM106.6666666666667 85.3333333333333V0H64V64H0V106.6666666666667H85.3333333333333C91.7333333333333 106.6666666666667 96 104.5333333333334 100.2666666666667 100.2666666666667C104.5333333333333 96 106.6666666666667 91.7333333333334 106.6666666666667 85.3333333333333zM106.6666666666667 170.6666666666667V256H64V192H0V149.3333333333334H85.3333333333333C91.7333333333333 149.3333333333334 96 151.4666666666667 100.2666666666667 155.7333333333334C104.5333333333333 160 106.6666666666667 164.2666666666667 106.6666666666667 170.6666666666667zM256 64H192V0H149.3333333333333V85.3333333333333C149.3333333333333 91.7333333333334 151.4666666666667 96 155.7333333333333 100.2666666666667C160 104.5333333333334 164.2666666666667 106.6666666666667 170.6666666666667 106.6666666666667H256V64z" />
    <glyph glyph-name="expand-left"
      unicode="&#xEA36;"
      horiz-adv-x="256" d="M234.6666666666667 128C221.8666666666667 128 213.3333333333333 119.4666666666667 213.3333333333333 106.6666666666667V72.5333333333333L72.5333333333333 213.3333333333334H106.6666666666667C119.4666666666667 213.3333333333334 128 221.8666666666667 128 234.6666666666667S119.4666666666667 256 106.6666666666667 256H21.3333333333333C8.5333333333333 256 0 247.4666666666667 0 234.6666666666667V149.3333333333334C0 136.5333333333334 8.5333333333333 128 21.3333333333333 128S42.6666666666667 136.5333333333334 42.6666666666667 149.3333333333334V183.4666666666667L183.4666666666667 42.6666666666667H149.3333333333333C136.5333333333333 42.6666666666667 128 34.1333333333334 128 21.3333333333333S136.5333333333333 0 149.3333333333333 0H234.6666666666667C247.4666666666667 0 256 8.5333333333333 256 21.3333333333333V106.6666666666667C256 119.4666666666667 247.4666666666667 128 234.6666666666667 128z" />
    <glyph glyph-name="expand-right"
      unicode="&#xEA37;"
      horiz-adv-x="256" d="M234.6666666666667 256H149.3333333333333C136.5333333333333 256 128 247.4666666666667 128 234.6666666666667S136.5333333333333 213.3333333333334 149.3333333333333 213.3333333333334H183.4666666666667L42.6666666666667 72.5333333333334V106.6666666666667C42.6666666666667 119.4666666666667 34.1333333333333 128 21.3333333333333 128S0 119.4666666666667 0 106.6666666666667V21.3333333333334C0 8.5333333333334 8.5333333333333 0 21.3333333333333 0H106.6666666666667C119.4666666666667 0 128 8.5333333333334 128 21.3333333333334S119.4666666666667 42.6666666666667 106.6666666666667 42.6666666666667H72.5333333333333L213.3333333333333 183.4666666666667V149.3333333333334C213.3333333333333 136.5333333333334 221.8666666666667 128 234.6666666666667 128S256 136.5333333333334 256 149.3333333333334V234.6666666666667C256 247.4666666666667 247.4666666666667 256 234.6666666666667 256z" />
    <glyph glyph-name="focus-drawer"
      unicode="&#xEA38;"
      horiz-adv-x="256" d="M0 234.6666666666667A21.3333333333333 21.3333333333333 0 0 0 21.3333333333333 256H234.6666666666667A21.3333333333333 21.3333333333333 0 0 0 256 234.6666666666667V170.6666666666667H0V234.6666666666667zM0 128H85.3333333333333V0H21.3333333333333A21.3333333333333 21.3333333333333 0 0 0 0 21.3333333333333V128zM256 128H128V0H234.6666666666667A21.3333333333333 21.3333333333333 0 0 1 256 21.3333333333333V128z" />
    <glyph glyph-name="ban"
      unicode="&#xEA39;"
      horiz-adv-x="256" d="M35.584 220.416L35.7973333333333 220.608A130.7306666666667 130.7306666666667 0 0 0 220.608 35.8186666666667L220.416 35.584L220.2026666666667 35.392A130.7306666666667 130.7306666666667 0 0 0 35.392 220.1813333333333L35.584 220.416zM128 215.1466666666667A85.9946666666667 85.9946666666667 0 0 1 84.0106666666667 202.7946666666667L202.7946666666667 84.0106666666667A86.016 86.016 0 0 1 215.168 128A87.1466666666667 87.1466666666667 0 0 1 128 215.1466666666667zM128 40.8533333333334A86.016 86.016 0 0 1 171.9893333333333 53.2053333333334L53.2053333333333 171.9893333333333A85.9946666666667 85.9946666666667 0 0 1 40.832 128A87.1466666666667 87.1466666666667 0 0 1 128 40.8533333333333z" />
    <glyph glyph-name="thumbs-up"
      unicode="&#xEA3A;"
      horiz-adv-x="256" d="M143.5093333333333 159.7866666666667H212.2666666666667A40.192 40.192 0 0 0 245.8453333333333 143.808A40.4693333333333 40.4693333333333 0 0 0 255.4453333333333 110.2506666666667L242.6453333333333 36.7573333333334A42.7946666666667 42.7946666666667 0 0 0 201.0666666666667 0H63.9573333333333V127.8293333333334L101.9306666666667 247.68A10.6666666666667 10.6666666666667 0 0 0 111.5306666666667 255.6586666666667A28.032 28.032 0 0 0 143.5093333333333 223.7013333333334V159.7866666666667zM0 127.8293333333334H42.6453333333333V0H0V127.8293333333334z" />
    <glyph glyph-name="search"
      unicode="&#xEA3B;"
      horiz-adv-x="256" d="M250.0266666666667 36.096L195.904 90.1973333333334A106.816 106.816 0 1 1 165.8026666666667 60.096L219.904 5.9733333333334A21.312 21.312 0 0 1 250.0266666666667 36.096zM43.2426666666667 148.8426666666667A63.9146666666667 63.9146666666667 0 1 0 171.0506666666667 148.8426666666667A63.9146666666667 63.9146666666667 0 0 0 43.2426666666667 148.8426666666667z" />
    <glyph glyph-name="calendar"
      unicode="&#xEA3C;"
      horiz-adv-x="256" d="M234.6666666666667 234.6666666666667H213.3333333333333V256H170.6666666666667V234.6666666666667H85.3333333333333V256H42.6666666666667V234.6666666666667H21.3333333333333A21.3333333333333 21.3333333333333 0 0 1 0 213.3333333333334V21.3333333333333A21.3333333333333 21.3333333333333 0 0 1 21.3333333333333 0H234.6666666666667A21.3333333333333 21.3333333333333 0 0 1 256 21.3333333333333V213.3333333333334A21.3333333333333 21.3333333333333 0 0 1 234.6666666666667 234.6666666666667zM170.6666666666667 85.3333333333333H213.3333333333333V42.6666666666667H170.6666666666667V85.3333333333333zM213.3333333333333 149.3333333333334V106.6666666666667H170.6666666666667V149.3333333333334H213.3333333333333zM106.6666666666667 85.3333333333333H149.3333333333333V42.6666666666667H106.6666666666667V85.3333333333333zM149.3333333333333 149.3333333333334V106.6666666666667H106.6666666666667V149.3333333333334H149.3333333333333zM42.6666666666667 85.3333333333333H85.3333333333333V42.6666666666667H42.6666666666667V85.3333333333333zM85.3333333333333 149.3333333333334V106.6666666666667H42.6666666666667V149.3333333333334H85.3333333333333z" />
    <glyph glyph-name="calendar-lg"
      unicode="&#xEA3D;"
      horiz-adv-x="256" d="M48 224V256H80V224H176V256H208V224H224C240.432 224 256 211.408 256 193.232V30.768C256 12.592 240.432 0 224 0H32C15.568 0 0 12.592 0 30.768V193.232C0 211.408 15.568 224 32 224H48zM32 160V104H88V160H32zM224 160H168V104H224V160zM152 160H104V104H152V160zM32 32H88V88H32V32zM104 32H152V88H104V32zM168 32H224V88H168V32z" />
    <glyph glyph-name="mobile-lg"
      unicode="&#xEA3E;"
      horiz-adv-x="256" d="M192 256H64C46.352 256 32 241.648 32 224V32C32 14.352 46.352 0 64 0H192C209.648 0 224 14.352 224 32V224C224 241.648 209.648 256 192 256zM128 32A16 16 0 1 0 128 64A16 16 0 0 0 128 32zM192 96H64V224H192V96z" />
    <glyph glyph-name="star-fill-lg"
      unicode="&#xEA3F;"
      horiz-adv-x="256" d="M120 240A16 16 0 0 0 134.352 231.088L162.768 173.504L226.288 164.272A16 16 0 0 0 235.168 136.976L189.2 92.176L200.048 28.88A16 16 0 0 0 176.832 12.016L120 41.888L63.168 12.016A16 16 0 0 0 39.968 28.88L50.816 92.176L4.832 136.976A16 16 0 0 0 13.696 164.272L77.232 173.504L105.648 231.088A16 16 0 0 0 120 240z" />
    <glyph glyph-name="star-outline-lg"
      unicode="&#xEA40;"
      horiz-adv-x="256" d="M120 240A16 16 0 0 0 134.352 231.088L162.768 173.504L226.288 164.272A16 16 0 0 0 235.168 136.976L189.2 92.176L200.048 28.88A16 16 0 0 0 176.832 12.016L120 41.888L63.168 12.016A16 16 0 0 0 39.968 28.88L50.816 92.176L4.832 136.976A16 16 0 0 0 13.696 164.272L77.232 173.504L105.648 231.088A16 16 0 0 0 120 240zM120 187.84L102.208 151.824A16 16 0 0 0 90.16 143.072L50.384 137.28L79.168 109.232A16 16 0 0 0 83.776 95.072L76.976 55.44L112.56 74.16A16 16 0 0 0 127.44 74.16L163.024 55.44L156.224 95.072A16 16 0 0 0 160.832 109.232L189.616 137.28L149.84 143.072A16 16 0 0 0 137.792 151.824L120 187.84z" />
    <glyph glyph-name="reset-lg"
      unicode="&#xEA41;"
      horiz-adv-x="256" d="M136 32C184 32 224 72 224 120S184 208 136 208C116.8 208 100.8 201.6 84.8 192H128V160H32V256H64V216C84.8 232 108.8 240 136 240C201.6 240 256 185.6 256 120S201.6 0 136 0S16 54.4 16 120H48C48 72 88 32 136 32z" />
    <glyph glyph-name="exchange-lg"
      unicode="&#xEA42;"
      horiz-adv-x="256" d="M208 144V208H144C144 225.6 129.6 240 112 240S80 225.6 80 208H16V144C33.6 144 48 129.6 48 112S33.6 80 16 80V16H80C80 33.6 94.4 48 112 48S144 33.6 144 16H208V80C225.6 80 240 94.4 240 112S225.6 144 208 144z" />
    <glyph glyph-name="help-lg"
      unicode="&#xEA43;"
      horiz-adv-x="256" d="M128 256C57.6 256 0 198.4 0 128S57.6 0 128 0S256 57.6 256 128S198.4 256 128 256zM128 48C118.4 48 112 54.4 112 64S118.4 80 128 80S144 73.6 144 64S137.6 48 128 48zM152 121.6C144 116.8 144 115.2 144 112V96H112V112C112 132.8 124.8 142.4 134.4 148.8C142.4 153.6 144 155.2 144 160C144 169.6 137.6 176 128 176C121.6 176 116.8 172.8 113.6 168L105.6 153.6L78.4 169.6L86.4 184C94.4 198.4 110.4 208 128 208C155.2 208 176 187.2 176 160C176 137.6 161.6 128 152 121.6z" />
    <glyph glyph-name="close-lg"
      unicode="&#xEA44;"
      horiz-adv-x="256" d="M235.2 235.2C228.8 241.6 219.2 241.6 212.8 235.2L128 150.4L43.2 235.2C36.8 241.6 27.2 241.6 20.8 235.2C14.4 228.8 14.4 219.2 20.8 212.8L105.6 128L20.8 43.2C14.4 36.8 14.4 27.2 20.8 20.8C24 17.6 27.2 16 32 16C36.8 16 40 17.6 43.2 20.8L128 105.6L212.8 20.8C216 17.6 220.8 16 224 16C227.2 16 232 17.6 235.2 20.8C241.6 27.2 241.6 36.8 235.2 43.2L150.4 128L235.2 212.8C241.6 219.2 241.6 228.8 235.2 235.2z" />
    <glyph glyph-name="plus-lg"
      unicode="&#xEA45;"
      horiz-adv-x="256" d="M240 144H144V240C144 249.6 137.6 256 128 256S112 249.6 112 240V144H16C6.4 144 0 137.6 0 128S6.4 112 16 112H112V16C112 6.4 118.4 0 128 0S144 6.4 144 16V112H240C249.6 112 256 118.4 256 128S249.6 144 240 144z" />
    <glyph glyph-name="shortcuts-lg"
      unicode="&#xEA46;"
      horiz-adv-x="256" d="M144 112H112C102.4 112 96 105.6 96 96V64C96 54.4 102.4 48 112 48H144C153.6 48 160 54.4 160 64V96C160 105.6 153.6 112 144 112zM144 208H112C102.4 208 96 201.6 96 192V160C96 150.4 102.4 144 112 144H144C153.6 144 160 150.4 160 160V192C160 201.6 153.6 208 144 208zM48 112H16C6.4 112 0 105.6 0 96V64C0 54.4 6.4 48 16 48H48C57.6 48 64 54.4 64 64V96C64 105.6 57.6 112 48 112zM240 112H208C198.4 112 192 105.6 192 96V64C192 54.4 198.4 48 208 48H240C249.6 48 256 54.4 256 64V96C256 105.6 249.6 112 240 112z" />
    <glyph glyph-name="search-lg"
      unicode="&#xEA47;"
      horiz-adv-x="256" d="M203.2 75.2C217.6 94.4 225.6 116.8 225.6 142.4C225.6 204.8 176 256 113.6 256S0 204.8 0 142.4C0 80 51.2 28.8 113.6 28.8C139.2 28.8 163.2 36.8 180.8 51.2L228.8 3.2C232 0 236.8 -1.6 240 -1.6C243.2 -1.6 248 0 251.2 3.2C257.6 9.6000000000001 257.6 19.2 251.2 25.6000000000001L203.2 75.2000000000001zM113.6 62.4C68.8 62.4 32 97.6 32 142.4S68.8 224 113.6 224S195.2 187.2 195.2 142.4S158.4 62.4 113.6 62.4z" />
    <glyph glyph-name="email-lg"
      unicode="&#xEA49;"
      horiz-adv-x="256" d="M0 176.256V48C0 31.392 12.832 16 30.928 16H225.072C243.168 16 256 31.392 256 48V175.888V208C256 224.608 243.168 240 225.072 240H30.928C12.848 240 0 224.608 0 208V176.256zM32 184.24V208H224V184.24L128 115.664L32 184.24zM224 144.912V48H32V144.912L118.704 82.992A16 16 0 0 1 137.296 82.992L224.016 144.912z" />
    <glyph glyph-name="note-lg"
      unicode="&#xEA4A;"
      horiz-adv-x="256" d="M240 256H16C6.4 256 0 249.6 0 240V16C0 6.4 6.4 0 16 0H176L256 80V240C256 249.6 249.6 256 240 256zM32 224H224V96H160V32H32V224z" />
    <glyph glyph-name="document-lg"
      unicode="&#xEA4B;"
      horiz-adv-x="256" d="M64 80A16 16 0 0 1 80 64H176A16 16 0 1 1 176 96H80A16 16 0 0 1 64 80zM80 144H176A16 16 0 1 0 176 112H80A16 16 0 1 0 80 144zM256 176L176 256H16C6.4 256 0 249.6 0 240V16C0 6.4 6.4 0 16 0H240C249.6 0 256 6.4 256 16V176zM32 224H160V160H224V32H32V224z" />
    <glyph glyph-name="add-dashlet-lg"
      unicode="&#xEA4C;"
      horiz-adv-x="256" d="M144 144V256C206.4 256 256 206.4 256 144H144zM112 224C49.6 224 0 174.4 0 112S49.6 0 112 0C142.4 0 171.2 12.8 190.4 32C168 56 136 88 112 112V224zM236.8 48C249.6 65.6 256 88 256 112H144L236.8 48z" />
    <glyph glyph-name="collapse-lg"
      unicode="&#xEA4D;"
      horiz-adv-x="256" d="M64 256L128 192L192 256H64zM192 0L128 64L64 0H192zM256 144V176H0V144H256zM256 112V80H0V112H256z" />
    <glyph glyph-name="hamburger-lg"
      unicode="&#xEA4E;"
      horiz-adv-x="256" d="M240 240H16A16 16 0 0 1 16 208H240A16 16 0 1 1 240 240zM240 144H16A16 16 0 0 1 16 112H240A16 16 0 1 1 240 144zM16 48H240A16 16 0 1 0 240 16H16A16 16 0 1 0 16 48z" />
    <glyph glyph-name="pin-fill-lg"
      unicode="&#xEA4F;"
      horiz-adv-x="256" d="M180.8 148.8L174.4 208H179.2C187.2 208 192 212.8 192 220.8V244.8C192 251.2 187.2 256 179.2 256H76.8C68.8 256 64 251.2 64 244.8V220.8C64 212.8 68.8 208 76.8 208H81.6L75.2 148.8C51.2 137.6 32 116.8 32 92.8C32 84.8 36.8 80 44.8 80H112V16C112 6.4 118.4 0 128 0S144 6.4 144 16V80H211.2C217.6 80 224 84.8 224 91.2C224 118.4 204.8 137.6 180.8 148.8z" />
    <glyph glyph-name="expand-lg"
      unicode="&#xEA50;"
      horiz-adv-x="256" d="M256 256H0V224H256V256zM192 144L128 208L64 144H192zM64 112L128 48L192 112H64zM0 0V32H256V0H0z" />
    <glyph glyph-name="dashboard-lg"
      unicode="&#xEA52;"
      horiz-adv-x="256" d="M64 240A16 16 0 0 1 48 256H16A16 16 0 0 1 0 240V208A16 16 0 0 1 16 192H48A16 16 0 0 1 64 208V240zM160 240A16 16 0 0 1 144 256H112A16 16 0 0 1 96 240V208A16 16 0 0 1 112 192H144A16 16 0 0 1 160 208V240zM192 240A16 16 0 0 0 208 256H240A16 16 0 0 0 256 240V208A16 16 0 0 0 240 192H208A16 16 0 0 0 192 208V240zM64 144A16 16 0 0 1 48 160H16A16 16 0 0 1 0 144V112A16 16 0 0 1 16 96H48A16 16 0 0 1 64 112V144zM96 144A16 16 0 0 0 112 160H144A16 16 0 0 0 160 144V112A16 16 0 0 0 144 96H112A16 16 0 0 0 96 112V144zM256 144A16 16 0 0 1 240 160H208A16 16 0 0 1 192 144V112A16 16 0 0 1 208 96H240A16 16 0 0 1 256 112V144zM0 48A16 16 0 0 0 16 64H48A16 16 0 0 0 64 48V16A16 16 0 0 0 48 0H16A16 16 0 0 0 0 16V48zM160 48A16 16 0 0 1 144 64H112A16 16 0 0 1 96 48V16A16 16 0 0 1 112 0H144A16 16 0 0 1 160 16V48zM192 48A16 16 0 0 0 208 64H240A16 16 0 0 0 256 48V16A16 16 0 0 0 240 0H208A16 16 0 0 0 192 16V48z" />
    <glyph glyph-name="star-outline"
      unicode="&#xEA54;"
      horiz-adv-x="256" d="M189.76 7.3386666666667L128 39.7653333333334L66.24 7.3173333333334A16 16 0 0 0 43.0293333333333 24.1706666666667L54.8266666666667 92.9493333333334L4.8426666666667 141.6746666666667A16 16 0 0 0 13.7173333333333 168.9813333333334L82.7733333333333 179.008L113.664 241.6C119.04 252.5226666666667 136.9813333333334 252.5226666666667 142.3573333333334 241.6L173.2266666666666 179.0293333333334L242.2826666666666 169.0026666666667A16 16 0 0 0 251.1573333333333 141.696L201.1946666666667 92.9706666666667L212.992 24.192A16 16 0 0 0 189.76 7.3386666666667zM135.4666666666667 72.0426666666667L175.9786666666667 50.7306666666667L168.2346666666667 95.8506666666667A16 16 0 0 0 172.8426666666667 110.0160000000001L205.6106666666667 141.9946666666667L160.32 148.5653333333334A15.936 15.936 0 0 0 148.2666666666667 157.3120000000001L128 198.3786666666667L107.7333333333333 157.312A16 16 0 0 0 95.68 148.5653333333334L50.3893333333333 141.9946666666667L83.1786666666667 110.016A16 16 0 0 0 87.7653333333333 95.8506666666667L80.0426666666667 50.7306666666667L120.5546666666667 72.0426666666667A15.9573333333333 15.9573333333333 0 0 0 135.4666666666667 72.0426666666667z" />
    <glyph glyph-name="reset"
      unicode="&#xEA55;"
      horiz-adv-x="256" d="M0 135.7013333333334V256L37.7813333333333 218.624A126.656 126.656 0 0 0 128 256A128 128 0 1 0 25.6 51.2L59.7333333333333 76.8A85.3333333333333 85.3333333333333 0 1 1 128 213.3333333333334A84.1386666666667 84.1386666666667 0 0 1 68.3946666666667 188.352L109.3333333333333 147.8186666666667L0 135.7013333333334z" />
    <glyph glyph-name="unlink"
      unicode="&#xEA56;"
      horiz-adv-x="256" d="M211.9466666666667 155.7333333333334L182.8693333333333 125.8666666666667L205.44 103.36L234.6666666666667 133.2266666666667A72 72 0 0 1 132.736 234.9226666666667L102.9333333333333 205.8666666666667L125.568 183.232L155.2213333333333 212.1386666666667A40 40 0 1 0 211.9466666666667 155.7333333333334zM130.1333333333333 73.1306666666667L100.2666666666667 44.0533333333333A40.0213333333333 40.0213333333333 0 1 0 43.8613333333333 100.8L72.768 130.4533333333334L50.1333333333333 153.0666666666667L21.0773333333333 123.264A72 72 0 0 1 122.7733333333333 21.3333333333333L152.64 50.5386666666667L130.1333333333333 73.1733333333334zM90.112 113.0666666666667L74.0266666666667 96.9813333333333A16 16 0 1 1 96.64 74.368L112.7466666666667 90.4746666666667L90.112 113.0666666666667zM142.9333333333333 165.888L159.0186666666667 181.9733333333333A16 16 0 1 0 181.632 159.36L165.5253333333334 143.2533333333333L142.9333333333333 165.888zM228.544 6.5493333333334A15.872 15.872 0 0 1 243.5413333333333 8.0426666666667A16.0213333333333 16.0213333333333 0 0 1 245.9733333333333 32.64L32.64 245.9733333333334A16 16 0 0 1 10.0266666666667 223.36L223.36 10.0266666666667C224.8533333333333 8.5333333333334 226.6026666666667 7.36 228.544 6.5493333333334z" />
    <glyph glyph-name="phone-lg"
      unicode="&#xEA57;"
      horiz-adv-x="256" d="M44.064 250.176C54.88 252.8 69.792 256 80 256H89.824L94.272 247.232L97.84 240.192L106.432 223.12C113.152 209.776 121.184 193.68 126.384 183.008L131.376 172.752L123.312 164.688L116.336 157.68A147.104 147.104 0 0 1 157.616 116.384L159.824 118.528C161.536 120.208 163.184 121.808 164.688 123.328L172.848 131.472L256 89.888V80C256 70.048 253.92 59.216 251.632 49.728C250.208 43.808 248.464 37.408 246.944 31.872A679.68 679.68 0 0 1 244.704 23.648A31.632 31.632 0 0 0 209.824 0.288H209.776A246.0800000000001 246.0800000000001 0 0 0 0.32 209.792V209.84A31.616 31.616 0 0 0 23.328 244.64L23.568 244.72L24.816 245.088A452.0640000000001 452.0640000000001 0 0 0 44.064 250.176zM32.048 213.856A214.08 214.08 0 0 1 213.84 32.048C214.656 35.2 215.504 38.288 216.368 41.392C217.76 46.448 219.168 51.568 220.512 57.184C221.664 61.984 222.592 66.464 223.184 70.512L179.056 92.592C176.544 90.112 174.144 87.696 171.696 85.088L162.96 75.712L151.888 82.208C121.28 100.208 100.208 121.264 82.208 151.888L75.872 162.672L84.8 171.424C87.808 174.384 89.888 176.464 92.608 179.2A5499.824 5499.824 0 0 1 70.64 223.04C65.088 222.144 58.352 220.704 51.6 219.072A464.96 464.96 0 0 1 33.68 214.32L32.56 214L32.272 213.92L32.048 213.856z" />
    <glyph glyph-name="attach"
      unicode="&#xEA59;"
      horiz-adv-x="256" d="M217.9626666666667 114.432L154.752 51.2A65.664 65.664 0 0 0 61.8666666666667 144.0213333333334L130.6453333333333 212.7573333333334A39.4026666666667 39.4026666666667 0 0 0 184.9813333333334 212.7573333333334A38.4 38.4 0 0 0 184.9813333333334 158.4213333333333L121.7706666666667 95.232A11.2213333333333 11.2213333333333 0 0 0 105.92 111.0826666666667L152.6186666666667 157.8666666666667A16 16 0 1 1 130.0053333333333 180.48L83.2 133.696A43.264 43.264 0 0 1 144.4053333333333 72.5333333333334L207.5946666666667 135.7866666666667A70.4 70.4 0 1 1 108.0106666666667 235.3706666666667L39.3173333333333 166.656A97.6213333333333 97.6213333333333 0 1 1 177.3653333333333 28.5866666666667L240.576 91.7333333333334A16 16 0 0 1 217.9626666666667 114.3466666666667V114.432z" />
    <glyph glyph-name="case-lg"
      unicode="&#xEA5A;"
      horiz-adv-x="256" d="M69.664 201.44C76.656 216.96 87.68 224 97.232 224H158.768C168.32 224 179.344 216.976 186.336 201.44A16 16 0 0 1 215.52 214.56C205.264 237.376 184.96 256 158.768 256H97.232C71.024 256 50.72 237.376 40.48 214.56A16 16 0 1 1 69.664 201.44zM0 120C0 149.296 21.728 176 52 176H64A16 16 0 0 0 80 160V80A16 16 0 0 0 64 64V48C64 36.752 71.328 32 75.424 32H144A16 16 0 1 0 144 0H75.424C49.216 0 32 23.888 32 48V64C32 65.376 32.16 66.72 32.496 68C12.832 76.512 0 97.488 0 120zM176 160A16 16 0 0 0 192 176H204C234.272 176 256 149.296 256 120S234.272 64 204 64H192A16 16 0 0 0 176 80V160z" />
    <glyph glyph-name="arrow-right-lg"
      unicode="&#xEA5B;"
      horiz-adv-x="256" d="M254.4 126.4C252.8 128 252.8 129.6 251.2 131.2L171.2 211.2C164.8 217.6 155.2 217.6 148.8 211.2C142.4 204.8 142.4 195.2 148.8 188.8L201.6 136H16C6.4 136 0 129.6 0 120S6.4 104 16 104H201.6L148.8 51.2C142.4 44.8 142.4 35.2 148.8 28.8C155.2 22.4 164.8 22.4 171.2 28.8L251.2 108.8C252.8 110.4 254.4 112 254.4 113.6C256 118.4 256 121.6 254.4 126.4z" />
    <glyph glyph-name="check-circle-lg"
      unicode="&#xEA5C;"
      horiz-adv-x="256" d="M128 256C57.6 256 0 198.4 0 128S57.6 0 128 0S256 57.6 256 128S198.4 256 128 256zM112 73.6L57.6 128L80 150.4L112 118.4L176 182.4L198.4 160L112 73.6z" />
    <glyph glyph-name="text-formatting"
      unicode="&#xEA5D;"
      horiz-adv-x="256" d="M128 256H0V192H21.3333333333333L27.584 204.48A16 16 0 0 0 41.8773333333333 213.3333333333334H106.6666666666667V48.8533333333334A16 16 0 0 0 95.7226666666667 33.7066666666667L64 21.3333333333333V0H192V21.3333333333333L160.2773333333333 33.7066666666667A16 16 0 0 0 149.3333333333333 48.8533333333333V213.3333333333334H214.1226666666667A16 16 0 0 0 228.416 204.48L234.6666666666667 192H256V256H128z" />
    <glyph glyph-name="check-circle"
      unicode="&#xEA5E;"
      horiz-adv-x="256" d="M128 256C57.6 256 0 198.4 0 128S57.6 0 128 0S256 57.6 256 128S198.4 256 128 256zM112 73.6L57.6 128L80 150.4L112 118.4L176 182.4L198.4 160L112 73.6z" />
    <glyph glyph-name="upload-lg"
      unicode="&#xEA5F;"
      horiz-adv-x="256" d="M112 201.6L75.2 164.8C68.8 158.4 59.2 158.4 52.8 164.8C46.4 171.2 46.4 180.8 52.8 187.2L116.8 251.2C118.4 252.8 120 254.4 121.6 254.4C126.4 256 129.6 256 134.4 254.4C136 254.4 137.6 252.8 139.2 251.2L203.2 187.2C209.6 180.8 209.6 171.2 203.2 164.8C196.8 158.4 187.2 158.4 180.8 164.8L144 201.6V80C144 70.4 137.6 64 128 64S112 70.4 112 80V201.6zM0 16C0 25.6 6.4 32 16 32H240C249.6 32 256 25.6 256 16S249.6 0 240 0H16C6.4 0 0 6.4 0 16z" />
    <glyph glyph-name="flag-lg"
      unicode="&#xEA60;"
      horiz-adv-x="256" d="M64 240A16 16 0 0 1 32 240V16A16 16 0 1 1 64 16V80H224A16 16 0 0 1 240 96V224A16 16 0 0 1 224 240H64zM64 208H208V112H64V208z" />
    <glyph glyph-name="studio-lg"
      unicode="&#xEA63;"
      horiz-adv-x="256" d="M152.8 232.24A68.8 68.8 0 0 0 159.856 231.872L123.584 195.6L136 136L195.6 123.584L231.824 159.808C233.632 141.536 228.224 123.872 215.92 111.568C205.408 101.056 190.784 95.28 174.72 95.28C167.312 95.28 159.808 96.48 152.432 98.832L138.64 103.248L128.4 93.008L66.48 31.088A24.864 24.864 0 0 0 48.784 23.76C42.0959999999999 23.76 35.824 26.368 31.088 31.088A24.848 24.848 0 0 0 23.7599999999999 48.784C23.7599999999999 55.472 26.368 61.744 31.088 66.48L93.008 128.4L103.248 138.64L98.832 152.448C91.12 176.512 95.888 200.256 111.568 215.936C122.08 226.448 136.736 232.24 152.8 232.24zM152.8 256C131.168 256 110.4 248.32 94.768 232.72C72.08 210.048 66.224 176.4 76.208 145.2L14.288 83.28A48.768 48.768 0 1 1 83.264 14.288L145.184 76.208A96.96 96.96 0 0 1 174.72 71.52C196.32 71.52 217.12 79.168 232.72 94.768C260.656 122.704 263.152 167.2480000000001 241.808 203.392L187.888 149.472L156.08 156.0800000000001L149.456 187.888L203.376 241.8080000000001A99.92 99.92 0 0 1 152.832 256z" />
    <glyph glyph-name="contact-lg"
      unicode="&#xEA65;"
      horiz-adv-x="256" d="M56 184C56 144 88 96 128 96S200 144 200 184C200 203.2 193.6 220.8 179.2 235.2C164.8 248 147.2 256 128 256C108.8 256 91.2 248 76.8 235.2C64 220.8 56 203.2 56 184zM99.2 212.8C107.2 219.2 116.8 224 128 224S148.8 219.2 156.8 212.8C163.2 204.8 168 195.2 168 184C168 160 148.8 128 128 128S88 160 88 184C88 195.2 92.8 204.8 99.2 212.8zM0 16C0 6.4 6.4 0 16 0H240C249.6 0 256 6.4 256 16V38.4C256 48 254.4 57.6 248 65.6C243.2 73.6 235.2 78.4 225.6 81.6L177.6 97.6C168 100.8 160 96 156.8 88C153.6 78.4 158.4 70.4 166.4 67.2L214.4 51.2C216 51.2 219.2 48 220.8 46.4C222.4 44.8 224 41.6 224 38.4V32H32V38.4A12.208 12.208 0 0 0 35.2 46.4C36.8 48 38.4 49.6 41.6 51.2L89.6 67.2C97.6 70.4 102.4 80 99.2 88C96 96 86.4 100.8 78.4 97.6L30.4 81.6C20.8 78.4 14.4 73.6 8 65.6C3.2 57.6 0 48 0 38.4V16z" />
    <glyph glyph-name="edit-lg"
      unicode="&#xEA66;"
      horiz-adv-x="256" d="M203.2 251.2L251.2 203.2C257.6 196.8 257.6 187.2 251.2 180.8L222.4 152L152 222.4L180.8 251.2C187.2 257.6 196.8 257.6 203.2 251.2zM4.8 75.2L129.6 200L200 129.6L75.2 4.8C72 1.6 68.8 0 64 0H16C6.4 0 0 6.4 0 16V64C0 68.8 1.6 72 4.8 75.2z" />
    <glyph glyph-name="arrow-left"
      unicode="&#xEA67;"
      horiz-adv-x="256" d="M121.7493333333333 198.2506666666667A21.3333333333333 21.3333333333333 0 0 1 91.584 228.416L6.2506666666667 143.0826666666667A21.3333333333333 21.3333333333333 0 0 1 6.2506666666667 112.9173333333334L91.584 27.584A21.3333333333333 21.3333333333333 0 0 1 121.7493333333334 57.7493333333333L72.832 106.6666666666667H234.6666666666667A21.3333333333333 21.3333333333333 0 1 1 234.6666666666667 149.3333333333334H72.832L121.7493333333333 198.2506666666667z" />
    <glyph glyph-name="reply-all"
      unicode="&#xEA69;"
      horiz-adv-x="256" d="M121.7493333333333 228.416A21.3333333333333 21.3333333333333 0 0 0 121.7493333333333 198.2506666666667L51.4986666666667 128L121.7493333333333 57.7493333333333A21.3333333333333 21.3333333333333 0 0 0 91.584 27.584L6.2506666666667 112.9173333333333A21.3333333333333 21.3333333333333 0 0 0 6.2506666666667 143.0826666666667L91.584 228.416A21.3333333333333 21.3333333333333 0 0 0 121.7493333333334 228.416zM168.832 149.3333333333334L217.7493333333333 198.2506666666667A21.3333333333333 21.3333333333333 0 0 1 187.584 228.416L102.2506666666667 143.0826666666667A21.3333333333333 21.3333333333333 0 0 1 102.2506666666667 112.9173333333334L187.584 27.584A21.3333333333333 21.3333333333333 0 0 1 217.7493333333333 57.7493333333333L168.832 106.6666666666667H234.6666666666667A21.3333333333333 21.3333333333333 0 1 1 234.6666666666667 149.3333333333334H168.832z" />
    <glyph glyph-name="message-lg"
      unicode="&#xEA6A;"
      horiz-adv-x="256" d="M0 224A32 32 0 0 0 32 256H224A32 32 0 0 0 256 224V96A32 32 0 0 0 224 64H160.592L90.4 3.84A16 16 0 0 0 64 16V64H32A32 32 0 0 0 0 96V224zM224 224H32V96H96V50.784L143.184 91.216L148.112 96H224V224z" />
    <glyph glyph-name="info-lg"
      unicode="&#xEA6B;"
      horiz-adv-x="256" d="M128 160A16 16 0 1 1 128 192A16 16 0 0 1 128 160zM144 64V144H112V64H144zM0 128A128 128 0 1 0 256 128A128 128 0 0 0 0 128zM128 224A96 96 0 1 1 128 32A96 96 0 0 1 128 224z" />
    <glyph glyph-name="error-lg"
      unicode="&#xEA6C;"
      horiz-adv-x="256" d="M128 256C57.6 256 0 198.4 0 128S57.6 0 128 0S256 57.6 256 128S198.4 256 128 256zM128 32C75.2 32 32 75.2 32 128S75.2 224 128 224S224 180.8 224 128S180.8 32 128 32zM112 192V112H144V192H112zM144 80A16 16 0 1 0 112 80A16 16 0 0 0 144 80z" />
    <glyph glyph-name="check-circle-line-lg"
      unicode="&#xEA6D;"
      horiz-adv-x="256" d="M57.376 128L112 73.376L198.624 160L176 182.624L112 118.624L80 150.624L57.376 128zM0 128C0 198.576 57.424 256 128 256S256 198.576 256 128S198.576 0 128 0S0 57.424 0 128zM32 128C32 75.056 75.056 32 128 32S224 75.056 224 128S180.944 224 128 224S32 180.944 32 128z" />
    <glyph glyph-name="warning-line-lg"
      unicode="&#xEA6E;"
      horiz-adv-x="256" d="M144 144H112V92H144V144zM128 48A16 16 0 1 1 128 80A16 16 0 0 1 128 48zM2.384 7.6C5.312 2.88 10.448 0 16 0H240A16 16 0 0 1 254.304 23.168L142.304 247.168C136.864 258.016 119.12 258.016 113.68 247.168L1.68 23.168A15.968 15.968 0 0 1 2.384 7.6zM128 204.224L214.112 32H41.888L128 204.224z" />
    <glyph glyph-name="arrow-up"
      unicode="&#xEA6F;"
      horiz-adv-x="256" d="M198.2506666666666 134.2506666666667A21.3333333333333 21.3333333333333 0 0 1 228.416 164.416L143.0826666666666 249.7493333333333A21.3333333333333 21.3333333333333 0 0 1 112.9173333333333 249.7493333333333L27.584 164.416A21.3333333333333 21.3333333333333 0 0 1 57.7493333333333 134.2506666666667L106.6666666666667 183.168V21.3333333333333A21.3333333333333 21.3333333333333 0 1 1 149.3333333333333 21.3333333333333V183.168L198.2506666666666 134.2506666666667z" />
    <glyph glyph-name="arrow-right"
      unicode="&#xEA70;"
      horiz-adv-x="256" d="M134.2506666666667 57.7493333333334A21.3333333333333 21.3333333333333 0 0 1 164.416 27.584L249.7493333333333 112.9173333333334A21.3333333333333 21.3333333333333 0 0 1 249.7493333333333 143.0826666666667L164.416 228.4160000000001A21.3333333333333 21.3333333333333 0 0 1 134.2506666666667 198.2506666666667L183.168 149.3333333333334H21.3333333333333A21.3333333333333 21.3333333333333 0 0 1 21.3333333333333 106.6666666666667H183.168L134.2506666666667 57.7493333333334z" />
    <glyph glyph-name="nodes"
      unicode="&#xEA71;"
      horiz-adv-x="256" d="M160 256H96V192H160V256zM144 144V170.6666666666667H112V144H32A16 16 0 0 1 16 128V85.3333333333333H48V112H112V85.3333333333333H144V112H208V85.3333333333333H240V128A16 16 0 0 1 224 144H144zM224 0A32 32 0 1 1 224 64A32 32 0 0 1 224 0zM160 32A32 32 0 1 0 96 32A32 32 0 0 0 160 32zM32 0A32 32 0 1 1 32 64A32 32 0 0 1 32 0z" />
    <glyph glyph-name="hide"
      unicode="&#xEA72;"
      horiz-adv-x="256" d="M39.9786666666667 181.0346666666667C57.792 149.0133333333334 90.752 128 128 128C165.248 128 198.1866666666667 149.0133333333333 216.0213333333333 181.0346666666667L253.312 160.2986666666667C244.1386666666667 143.8293333333333 231.9786666666667 129.3013333333333 217.5786666666667 117.504L242.2186666666667 92.8853333333334A10.6666666666667 10.6666666666667 0 1 0 227.136 77.8026666666667L199.8293333333333 105.0666666666667A140.8853333333333 140.8853333333333 0 0 0 164.4586666666667 90.1333333333334L170.3466666666667 66.5813333333334A10.6666666666667 10.6666666666667 0 0 0 149.6533333333333 61.4186666666667L143.4666666666667 86.1653333333334A141.504 141.504 0 0 0 112.5333333333333 86.1653333333334L106.3466666666667 61.4186666666667A10.6666666666667 10.6666666666667 0 1 0 85.6533333333333 66.5813333333334L91.5413333333333 90.1333333333334A140.8853333333333 140.8853333333333 0 0 0 56.1706666666667 105.0666666666667L28.864 77.8026666666667A10.6666666666667 10.6666666666667 0 0 0 13.8026666666667 92.8853333333334L38.4 117.504A148.7786666666667 148.7786666666667 0 0 0 2.688 160.2986666666667L39.9786666666667 181.0346666666667z" />
    <glyph glyph-name="help"
      unicode="&#xEA73;"
      horiz-adv-x="256" d="M128 0A128 128 0 1 1 128 256A128 128 0 0 1 128 0zM123.9893333333333 164.48A14.8266666666667 14.8266666666667 0 0 1 118.2933333333333 161.6L102.464 147.3066666666667L73.8773333333333 178.9866666666667L89.7066666666667 193.28C102.5066666666667 204.8213333333333 120.96 209.4933333333333 137.1733333333334 207.5733333333333C154.112 205.568 173.1626666666667 195.456 179.3493333333333 172.928C186.496 146.944 169.9626666666667 129.1306666666667 160.4906666666667 120.512C157.888 118.1653333333333 155.328 116.032 153.216 114.3253333333333L152.7253333333334 113.8986666666667C151.36 112.7893333333333 150.272 111.8933333333333 149.3333333333334 111.0826666666667V96H106.6666666666667V117.3333333333334C106.6666666666667 125.056 110.08 130.816 112.3626666666667 133.9733333333334C114.7093333333333 137.2373333333334 117.5253333333333 139.904 119.616 141.7813333333334C121.536 143.5093333333334 123.712 145.28 125.5253333333333 146.7946666666667L126.1226666666667 147.2853333333334C128.2346666666667 148.992 130.0693333333333 150.528 131.7973333333333 152.1066666666667C139.1146666666666 158.7413333333333 138.4746666666667 160.7466666666667 138.24 161.4933333333334L138.1973333333333 161.6V161.6426666666667C137.8773333333333 162.816 137.4506666666667 163.264 136.9386666666667 163.6266666666667A10.1973333333333 10.1973333333333 0 0 1 132.16 165.2053333333333A21.184 21.184 0 0 1 123.9893333333333 164.48zM149.3333333333333 64A21.3333333333333 21.3333333333333 0 1 0 106.6666666666667 64A21.3333333333333 21.3333333333333 0 0 0 149.3333333333333 64z" />
    <glyph glyph-name="twitter"
      unicode="&#xEA74;"
      horiz-adv-x="256" d="M256 208C246.4 203.2 236.8 201.6 225.6 200C236.8 206.4 244.8 216 248 228.8C238.4 222.4 227.2 219.2 214.4 216A55.872 55.872 0 0 1 176 232C148.8 232 124.8 208 124.8 179.2C124.8 174.4 124.8 171.2 126.4 168A147.2213333333334 147.2213333333334 0 0 0 17.6 222.4C12.8 214.4 11.2 206.4 11.2 195.2C11.2 177.6 20.8 161.6 35.2 152C27.2 152 19.2 155.2 11.2 158.4C11.2 132.8 28.8 112 52.8 107.2C48 105.6 43.2 105.6 38.4 105.6C35.2 105.6 32 105.6 28.8 107.2A51.84 51.84 0 0 1 78.4 70.4C60.8 56 38.4 48 12.8 48H0C24 33.6 51.2 24 80 24C176 24 228.8 104 228.8 172.8V179.2C240 187.2 249.6 196.8 256 208z" />
    <glyph glyph-name="message"
      unicode="&#xEA75;"
      horiz-adv-x="256" d="M0 219.4346666666667C0 240.128 17.088 256 36.9706666666667 256H219.0293333333334C238.912 256 256 240.1493333333334 256 219.4346666666667V97.4933333333333C256 76.8 238.912 60.928 219.0293333333334 60.928H163.2L74.1546666666667 3.4133333333334A21.3333333333333 21.3333333333333 0 0 0 41.2373333333333 21.3333333333333V60.9493333333333H36.9706666666667C17.088 60.9493333333333 0 76.8 0 97.5146666666667V219.4346666666667zM42.6666666666667 213.3333333333334V103.616H83.904V60.5226666666667L145.344 100.2026666666667C146.9653333333333 101.2693333333334 145.344 100.2026666666667 150.7413333333333 103.616H213.3333333333333V213.3333333333334H42.6666666666667z" />
    <glyph glyph-name="sugar-predict-lg"
      unicode="&#xEA78;"
      horiz-adv-x="256" d="M128 256L240 192V64L128 0L16 64V192L128 256zM80 160V96L128 72L176 96V160L128 184L80 160z" />
    <glyph glyph-name="sugar-predict"
      unicode="&#xEA7B;"
      horiz-adv-x="256" d="M128 256L234.6666666666667 192V64L128 0L21.3333333333333 64V192L128 256zM85.3333333333333 160V96L128 74.6666666666667L170.6666666666667 96V160L128 181.3333333333333L85.3333333333333 160z" />
    <glyph glyph-name="opportunity-lg"
      unicode="&#xEA7D;"
      horiz-adv-x="256" d="M16 208H240A16 16 0 0 1 240 240H16A16 16 0 0 1 16 208zM208 144H48A16 16 0 0 0 48 176H208A16 16 0 0 0 208 144zM80 80H176A16 16 0 0 1 176 112H80A16 16 0 0 1 80 80zM112 16H144A16 16 0 0 1 144 48H112A16 16 0 0 1 112 16z" />
    <glyph glyph-name="lead-lg"
      unicode="&#xEA7E;"
      horiz-adv-x="256" d="M61.328 256H32V212.576C32 167.184 67.2 129.488 112 128.048V32H64A16 16 0 1 1 64 0H192A16 16 0 1 1 192 32H144V80A96 96 0 0 1 240 176V224H208A95.68 95.68 0 0 1 140.4 196.16C130.08 230.592 98.864 256 61.328 256zM112 171.424V160.064C85.632 161.504 64 184.064 64 212.576V223.936C90.368 222.496 112 199.936 112 171.424zM144 112V128A64 64 0 0 0 208 192V176A64 64 0 0 0 144 112z" />
    <glyph glyph-name="account-lg"
      unicode="&#xEA7F;"
      horiz-adv-x="256" d="M40.734 254.926C31.52 252.721 23.109 245.918 18.812 237.193L16.5 232.5L16.5 128L16.5 23.5L18.849 18.73C21.851 12.634 28.634 5.851 34.73 2.849L39.5 0.5L125.808 0.228C220.771 -0.07 217.646 -0.251 226.421 6.051C231.913 9.995 236.642 16.505 238.527 22.716C240.697 29.87 240.697 226.13 238.527 233.284C235.798 242.277 229.216 249.341 219.5 253.704C215.761 255.383 209.911 255.511 130 255.663C82.088 255.755 42.845 255.43 40.734 254.926M208 128L208 32L176 32L144 32L144 56L144 80L128 80L112 80L112 56L112 32L80 32L48 32L48 128L48 224L128 224L208 224L208 128M80 176L80 160L96 160L112 160L112 176L112 192L96 192L80 192L80 176M144 176L144 160L160 160L176 160L176 176L176 192L160 192L144 192L144 176M80 112L80 96L96 96L112 96L112 112L112 128L96 128L80 128L80 112M144 112L144 96L160 96L176 96L176 112L176 128L160 128L144 128L144 112" />
    <glyph glyph-name="user-sm"
      unicode="&#xEA80;"
      horiz-adv-x="256" d="M85.3333333333333 160C85.3333333333333 136.5333333333333 104.5333333333333 117.3333333333334 128 117.3333333333334S170.6666666666667 136.5333333333334 170.6666666666667 160V170.6666666666667C170.6666666666667 194.1333333333333 151.4666666666667 213.3333333333334 128 213.3333333333334S85.3333333333333 194.1333333333333 85.3333333333333 170.6666666666667V160zM53.3333333333333 42.6666666666667C53.3333333333333 72.5333333333334 76.8 96 106.6666666666667 96H149.3333333333333C179.2 96 202.6666666666666 72.5333333333333 202.6666666666666 42.6666666666667H53.3333333333333z" />
    <glyph glyph-name="quote-lg"
      unicode="&#xEA81;"
      horiz-adv-x="256" d="M224 256H32C22.4 256 16 249.6 16 240V16C16 6.4 22.4 0 32 0H224C233.6 0 240 6.4 240 16V240C240 249.6 233.6 256 224 256zM80 48H48V80H80V48zM80 112H48V144H80V112zM144 48H112V80H144V48zM144 112H112V144H144V112zM208 48H176V144H208V48zM208 176H48V224H208V176z" />
    <glyph glyph-name="equal"
      unicode="&#xEA94;"
      horiz-adv-x="256" d="M64 192H192V149.3333333333334H64V192zM64 106.6666666666667H192V64H64V106.6666666666667z" />
    <glyph glyph-name="slicers-xl"
      unicode="&#xEA95;"
      horiz-adv-x="256" d="M64 48A16 16 0 0 0 80 64H176A16 16 0 0 0 176 32H80A16 16 0 0 0 64 48zM42.6666666666667 122.6666666666667A16 16 0 0 0 58.6666666666667 138.6666666666667H197.3333333333333A16 16 0 0 0 197.3333333333333 106.6666666666667H58.6666666666667A16 16 0 0 0 42.6666666666667 122.6666666666667zM10.6666666666667 197.3333333333334A16 16 0 0 0 26.6666666666667 213.3333333333334H229.3333333333333A16 16 0 0 0 229.3333333333333 181.3333333333334H26.6666666666667A16 16 0 0 0 10.6666666666667 197.3333333333334z" />
    <glyph glyph-name="escalation-lg"
      unicode="&#xEA96;"
      horiz-adv-x="256" d="M139.2 251.2L219.2 171.2C225.6 164.8 225.6 155.2 219.2 148.8C212.8 142.4 203.2 142.4 196.8 148.8L144 201.6V96C144 86.4 137.6 80 128 80S112 86.4 112 96V201.6L59.2 148.8C52.8 142.4 43.2 142.4 36.8 148.8C30.4 155.2 30.4 164.8 36.8 171.2L116.8 251.2C118.4 252.8 120 254.4 121.6 254.4C126.4 256 129.6 256 134.4 254.4C136 254.4 137.6 252.8 139.2 251.2zM112 32C112 41.6 118.4 48 128 48S144 41.6 144 32V16C144 6.4 137.6 0 128 0S112 6.4 112 16V32z" />
    <glyph glyph-name="add-circle-lg"
      unicode="&#xEA97;"
      horiz-adv-x="256" d="M128 256C57.6 256 0 198.4 0 128S57.6 0 128 0S256 57.6 256 128S198.4 256 128 256zM192 112H144V64H112V112H64V144H112V192H144V144H192V112z" />
    <glyph glyph-name="add-line-lg"
      unicode="&#xEA98;"
      horiz-adv-x="256" d="M144 192H112V144H64V112H112V64H144V112H192V144H144V192zM128 256C57.6 256 0 198.4 0 128S57.6 0 128 0S256 57.6 256 128S198.4 256 128 256zM128 32C75.2 32 32 75.2 32 128S75.2 224 128 224S224 180.8 224 128S180.8 32 128 32z" />
    <glyph glyph-name="add-target-lg"
      unicode="&#xEA99;"
      horiz-adv-x="256" d="M196 36V0H220V36H256V60H220V96H196V60H160V36H196zM176 128A48 48 0 1 0 80 128A48 48 0 0 0 176 128zM128 32A96 96 0 1 0 224 128H256A128 128 0 1 1 128 0V32z" />
    <glyph glyph-name="help-circle-lg"
      unicode="&#xEA9A;"
      horiz-adv-x="256" d="M128 256C57.6 256 0 198.4 0 128S57.6 0 128 0S256 57.6 256 128S198.4 256 128 256zM128 48C118.4 48 112 54.4 112 64S118.4 80 128 80S144 73.6 144 64S137.6 48 128 48zM152 121.6C144 116.8 144 115.2 144 112V96H112V112C112 132.8 124.8 142.4 134.4 148.8C142.4 153.6 144 155.2 144 160C144 169.6 137.6 176 128 176C121.6 176 116.8 172.8 113.6 168L105.6 153.6L78.4 169.6L86.4 184C94.4 198.4 110.4 208 128 208C155.2 208 176 187.2 176 160C176 137.6 161.6 128 152 121.6z" />
    <glyph glyph-name="divide-line-lg"
      unicode="&#xEA9B;"
      horiz-adv-x="256" d="M128 256C57.6 256 0 198.4 0 128S57.6 0 128 0S256 57.6 256 128S198.4 256 128 256zM128 32C75.2 32 32 75.2 32 128S75.2 224 128 224S224 180.8 224 128S180.8 32 128 32zM112 192H144V160H112V192zM64 144H192V112H64V144zM112 96H144V64H112V96z" />
    <glyph glyph-name="string"
      unicode="&#xEA9C;"
      horiz-adv-x="256" d="M50.56 0H0L105.8133333333333 256H149.4613333333333L255.4453333333334 0H204.672L181.6533333333333 59.6053333333334H73.28L50.56 0zM127.5093333333333 201.6853333333334L86.848 95.488H168.128L127.5093333333333 201.6853333333334z" />
    <glyph glyph-name="filter"
      unicode="&#xEA9D;"
      horiz-adv-x="256" d="M240 256H16C6.4 256 0 249.6 0 240V208C0 203.2 1.6 198.4 6.4 195.2L96 120V16C96 9.6 99.2 3.2 105.6 1.6C107.2 0 110.4 0 112 0A14.5066666666667 14.5066666666667 0 0 1 123.2 4.8L155.2 36.8A14.5066666666667 14.5066666666667 0 0 1 160 48V120L249.6 195.2C254.4 198.4 256 203.2 256 208V240C256 249.6 249.6 256 240 256z" />
    <glyph glyph-name="number"
      unicode="&#xEA9E;"
      horiz-adv-x="256" d="M234.6666666666667 192H205.2266666666666L212.9066666666667 230.4A21.3333333333333 21.3333333333333 0 1 1 171.0933333333333 238.9333333333334L161.7066666666667 192H119.8933333333333L127.5733333333333 230.4A21.3333333333333 21.3333333333333 0 0 1 85.76 238.9333333333334L76.3733333333333 192H42.6666666666667A21.3333333333333 21.3333333333333 0 0 1 42.6666666666667 149.3333333333334H67.84L59.3066666666667 106.6666666666667H21.3333333333333A21.3333333333333 21.3333333333333 0 0 1 21.3333333333333 64H50.7733333333333L43.0933333333333 25.6A21.3333333333333 21.3333333333333 0 1 1 84.8853333333333 17.0666666666667L94.2933333333333 64H136.1066666666667L128.4266666666667 25.6A21.3333333333333 21.3333333333333 0 1 1 170.2186666666667 17.0666666666667L179.6266666666667 64H213.3333333333333A21.3333333333333 21.3333333333333 0 1 1 213.3333333333333 106.6666666666667H188.16L196.6933333333333 149.3333333333333H234.6666666666667A21.3333333333333 21.3333333333333 0 1 1 234.6666666666667 192zM144.64 106.6666666666667H102.8266666666667L111.36 149.3333333333334H153.1733333333334L144.64 106.6666666666667z" />
    <glyph glyph-name="format-lg"
      unicode="&#xEA9F;"
      horiz-adv-x="256" d="M208 248A8 8 0 0 1 200 256H8A8 8 0 0 1 0 248V184A8 8 0 0 1 8 176H200A8 8 0 0 1 208 184V208H240V128H104A8 8 0 0 1 96 120V8A8 8 0 0 1 104 0H152A8 8 0 0 1 160 8V112H248A8 8 0 0 1 256 120V216A8 8 0 0 1 248 224H208V248z" />
    <glyph glyph-name="insights-lg"
      unicode="&#xEAA0;"
      horiz-adv-x="256" d="M234.256 122.624A93.36 93.36 0 0 1 228.896 128.784L234.256 134.8A99.328 99.328 0 0 1 253.136 166.4A39.84 39.84 0 0 1 251.408 199.744A40.672 40.672 0 0 1 223.248 217.28A102.736 102.736 0 0 1 186.56 217.28C183.248 217.28 179.632 216.016 176 215.072A91.712 91.712 0 0 1 158.08 243.36A41.712 41.712 0 0 1 128.624 256A41.584 41.584 0 0 1 98.864 243.36A92.672 92.672 0 0 1 81.232 214.432L69.584 216.816A102.72 102.72 0 0 1 32.896 216.816A39.888 39.888 0 0 1 4.416 199.264A39.776 39.776 0 0 1 2.976 165.92A101.536 101.536 0 0 1 21.728 134.32L27.232 128.32L21.728 122.16A99.792 99.792 0 0 1 2.992 90.544A39.488 39.488 0 0 1 4.416 58.304A39.76 39.76 0 0 1 32.576 40.144A106.976 106.976 0 0 1 69.264 40.144L80.608 42.512C84.88 31.792 91.072 21.92 98.864 13.424A41.12 41.12 0 0 1 128.16 0A40.96 40.96 0 0 1 157.6 13.44A93.92 93.92 0 0 1 175.872 42.672C179.488 41.872 182.944 41.072 186.112 40.608A106.976 106.976 0 0 1 222.784 40.608A40.208 40.208 0 0 1 250.944 58.784A39.456 39.456 0 0 1 252.704 91.968A97.6 97.6 0 0 1 234.272 122.624zM224.816 175.888A75.264 75.264 0 0 0 211.424 154.384C210.16 152.816 208.752 151.392 207.328 149.808A319.872 319.872 0 0 1 189.856 163.408C188.912 170.976 187.504 178.256 185.92 185.36L192.544 186.64A74.192 74.192 0 0 0 218.032 186.64C223.712 185.52 225.12 183.776 225.44 183.312C225.76 182.832 225.76 181.248 224.8 175.888zM189.856 94.176C196.16 98.608 201.984 103.184 207.328 107.616C208.768 106.176 210.144 104.64 211.424 103.04C216.976 96.848 221.504 89.808 224.816 82.176C226.544 76.64 225.76 74.592 224.816 74.112C223.856 73.632 223.072 71.744 217.408 70.64A74.832 74.832 0 0 0 191.904 70.64L185.456 71.744C186.864 79.168 188.128 86.592 189.072 94.176H189.8720000000001zM146.096 51.68A61.216 61.216 0 0 0 136.016 34.768C132.24 31.136 129.872 30.496 128.624 30.496A11.488 11.488 0 0 0 121.376 34.768A62.304 62.304 0 0 0 110.512 52.144C116.176 54.208 122.16 56.736 127.984 59.264C134.288 56.576 140.432 54.048 146.096 51.68zM127.984 93.232C122.8 95.76 117.44 98.608 112.24 101.616L97.6 110.464V128.32V147.12C102.336 150.128 107.2 153.12 112.096 155.808C116.976 158.496 122.64 161.664 127.84 164.352C133.184 161.664 138.544 158.816 143.568 155.808C148.608 152.816 154.288 149.488 159.312 146.176V111.408C154.128 107.936 148.768 104.768 143.568 101.616C138.384 98.448 133.328 95.76 127.984 93.232zM127.984 198.16L110.832 205.28C113.44 211.104 117.008 216.448 121.392 221.072C124.992 224.864 127.52 225.504 128.624 225.504S132.24 225.504 136.016 221.072C140.368 216.448 143.888 211.104 146.416 205.28C140.272 203.376 134.128 200.848 127.984 198.16zM49.28 149.808C47.872 151.392 46.464 152.816 45.2 154.384A75.264 75.264 0 0 0 31.824 175.888C29.92 181.248 30.864 183.312 31.824 183.936C32.768 184.576 33.552 186.16 39.216 187.264C42.304 187.6 45.424 187.6 48.496 187.264C53.776 187.184 59.056 186.704 64.24 185.824L71.968 184.256C70.544 177.616 69.28 170.656 68.336 163.552A158.496 158.496 0 0 1 49.616 149.808H49.296zM32.128 82.176C35.392 89.968 39.92 97.184 45.52 103.504C46.8 105.104 48.16 106.64 49.6 108.096C55.424 103.184 61.728 98.448 68.336 93.696C69.296 86.592 70.544 79.648 71.968 72.848L64.4 71.424A74.832 74.832 0 0 0 38.896 71.424C33.232 72.544 31.824 74.272 31.504 74.896C31.184 75.536 30.24 76.016 32.144 82.176z" />
    <glyph glyph-name="invalid-circle-lg"
      unicode="&#xEAA1;"
      horiz-adv-x="256" d="M218.624 37.376C268.464 87.216 268.464 168.784 218.624 218.624S87.216 268.464 37.376 218.624S-12.464 87.216 37.376 37.376S168.784 -12.464 218.624 37.376zM71.36 94.016L105.344 128L71.36 161.984L94.016 184.64L128 150.656L161.984 184.64L184.64 161.984L150.656 128L184.64 94.016L161.984 71.36L128 105.344L94.016 71.36L71.36 94.016z" />
    <glyph glyph-name="discover-xl"
      unicode="&#xEAA2;"
      horiz-adv-x="256" d="M149.3333333333333 224H106.6666666666667V21.3333333333333H64V160H21.3333333333333V21.3333333333333H0V0H256V21.3333333333333H234.6666666666667V117.3333333333334H192V21.3333333333333H149.3333333333334V224z" />
    <glyph glyph-name="layout-lg"
      unicode="&#xEAA3;"
      horiz-adv-x="256" d="M0 176H64V0H0V176zM96 256H160V0H96V256zM192 144H256V0H192V144z" />
    <glyph glyph-name="multiply-line-lg"
      unicode="&#xEAA4;"
      horiz-adv-x="256" d="M184.416 162.096L161.792 184.72L127.84 150.784L93.92 184.72L71.28 162.096L105.216 128.16L71.28 94.208L93.904 71.584L127.84 105.52L161.792 71.6L184.416 94.208L150.48 128.16L184.4 162.096zM218.352 218.672C168.576 268.432 87.12 268.432 37.328 218.672C-12.432 168.88 -12.432 87.424 37.328 37.648C87.12 -12.128 168.576 -12.128 218.352 37.648C268.128 87.424 268.128 168.88 218.352 218.672zM59.952 60.272C22.624 97.616 22.624 158.704 59.952 196.032C97.296 233.376 158.384 233.376 195.728 196.032C233.056 158.704 233.056 97.6 195.728 60.272C158.384 22.944 97.296 22.944 59.968 60.272z" />
    <glyph glyph-name="redo-lg"
      unicode="&#xEAA7;"
      horiz-adv-x="256" d="M120 32C72 32 32 72 32 120S72 208 120 208C139.2 208 155.2 201.6 171.2 192H128V160H224V256H192V216C171.2 232 147.2 240 120 240C54.4 240 0 185.6 0 120S54.4 0 120 0S240 54.4 240 120H208C208 72 168 32 120 32z" />
    <glyph glyph-name="refresh-lg"
      unicode="&#xEAA8;"
      horiz-adv-x="256" d="M121.0709333333334 218.7946666666667C141.1925333333334 218.7946666666667 160.512 211.5754666666667 175.7696 198.8266666666667L136.1408 159.1978666666667L242.1418666666667 149.9989333333334L232.9429333333333 256L200.0042666666667 223.0613333333333A119.7056 119.7056 0 0 1 121.0709333333334 252.928A119.04 119.04 0 0 1 3.2597333333333 153.3610666666667L36.9322666666667 147.712A84.992 84.992 0 0 0 121.0709333333333 218.7946666666667zM121.0709333333334 48.128A85.4016 85.4016 0 0 0 66.3722666666667 68.096L106.0010666666667 107.7248L0 116.9237333333334L9.1989333333333 10.9226666666667L42.1376 43.8613333333333A119.7056 119.7056 0 0 1 121.0709333333333 13.9946666666667A119.04 119.04 0 0 1 238.8821333333333 113.5616L205.2096 119.2106666666667A84.992 84.992 0 0 0 121.0709333333333 48.128z" />
    <glyph glyph-name="undo-lg"
      unicode="&#xEAAC;"
      horiz-adv-x="256" d="M136 32C184 32 224 72 224 120S184 208 136 208C116.8 208 100.8 201.6 84.8 192H128V160H32V256H64V216C84.8 232 108.8 240 136 240C201.6 240 256 185.6 256 120S201.6 0 136 0S16 54.4 16 120H48C48 72 88 32 136 32z" />
    <glyph glyph-name="activity-feed-xl"
      unicode="&#xEAAD;"
      horiz-adv-x="256" d="M10.6666666666667 213.3333333333334H74.6666666666667V149.3333333333334H10.6666666666667V213.3333333333334zM10.6666666666667 106.6666666666667H74.6666666666667V42.6666666666667H10.6666666666667V106.6666666666667zM96 106.6666666666667H245.3333333333333V85.3333333333333H96V106.6666666666667zM96 213.3333333333334H245.3333333333333V192H96V213.3333333333334zM96 170.6666666666667H192V149.3333333333334H96V170.6666666666667zM96 64H192V42.6666666666667H96V64z" />
    <glyph glyph-name="chevron-left-xl"
      unicode="&#xEAAE;"
      horiz-adv-x="256" d="M110.1653333333333 128A5.3333333333333 5.3333333333333 0 0 0 111.7333333333333 131.776L181.984 202.016A16 16 0 0 1 159.3493333333333 224.6506666666667L74.016 139.3173333333333A16 16 0 0 1 74.016 116.6826666666667L159.3493333333333 31.3493333333333A16 16 0 0 1 181.984 53.984L111.7333333333333 124.224A5.3333333333333 5.3333333333333 0 0 0 110.1653333333333 128z" />
    <glyph glyph-name="close-xl"
      unicode="&#xEAAF;"
      horiz-adv-x="256" d="M235.2 235.2C228.8 241.6 219.2 241.6 212.8 235.2L128 150.4L43.2 235.2C36.8 241.6 27.2 241.6 20.8 235.2C14.4 228.8 14.4 219.2 20.8 212.8L105.6 128L20.8 43.2C14.4 36.8 14.4 27.2 20.8 20.8C24 17.6 27.2 16 32 16C36.8 16 40 17.6 43.2 20.8L128 105.6L212.8 20.8C216 17.6 220.8 16 224 16C227.2 16 232 17.6 235.2 20.8C241.6 27.2 241.6 36.8 235.2 43.2L150.4 128L235.2 212.8C241.6 219.2 241.6 228.8 235.2 235.2z" />
    <glyph glyph-name="kebab-lg"
      unicode="&#xEAB1;"
      horiz-adv-x="256" d="M128 64A32 32 0 1 0 128 0A32 32 0 0 0 128 64zM160 128A32 32 0 1 1 96 128A32 32 0 0 1 160 128zM160 224A32 32 0 1 1 96 224A32 32 0 0 1 160 224z" />
    <glyph glyph-name="insights-xl"
      unicode="&#xEAB3;"
      horiz-adv-x="256" d="M234.2506666666667 122.624A93.504 93.504 0 0 1 228.9066666666667 128.7893333333334L234.2506666666667 134.7946666666667A99.3066666666667 99.3066666666667 0 0 1 253.152 166.4A39.808 39.808 0 0 1 251.4133333333334 199.744A40.6826666666667 40.6826666666667 0 0 1 223.232 217.28A102.7306666666667 102.7306666666667 0 0 1 186.5493333333333 217.28C183.2426666666667 217.28 179.6266666666667 216.0213333333333 176.0106666666667 215.072A91.712 91.712 0 0 1 158.0586666666667 243.36A41.7173333333333 41.7173333333333 0 0 1 128.6186666666667 256A41.5786666666667 41.5786666666667 0 0 1 98.8586666666667 243.36A92.6613333333333 92.6613333333333 0 0 1 81.2373333333333 214.4426666666667L69.5786666666667 216.8106666666667A102.7413333333333 102.7413333333333 0 0 1 32.9066666666667 216.8106666666667A39.8933333333333 39.8933333333333 0 0 1 4.4053333333333 199.2533333333333A39.7866666666667 39.7866666666667 0 0 1 2.9866666666667 165.9306666666667A101.536 101.536 0 0 1 21.728 134.3253333333333L27.232 128.32L21.728 122.1546666666667A99.808 99.808 0 0 1 2.9866666666667 90.5493333333334A39.488 39.488 0 0 1 4.4053333333333 58.3146666666667A39.744 39.744 0 0 1 32.5866666666667 40.1386666666667C44.7253333333333 38.0266666666667 57.1306666666667 38.0266666666667 69.2693333333333 40.1386666666667L80.608 42.5066666666667C84.8746666666667 31.776 91.0613333333333 21.92 98.8693333333333 13.4293333333333A41.0986666666667 41.0986666666667 0 0 1 128.1493333333333 0A40.96 40.96 0 0 1 157.5893333333333 13.44A93.9093333333333 93.9093333333333 0 0 1 175.8506666666667 42.6666666666667C179.4773333333333 41.8773333333334 182.9333333333333 41.088 186.0906666666667 40.608C198.2186666666667 38.496 210.624 38.496 222.7626666666667 40.608A40.224 40.224 0 0 1 250.944 58.784A39.4666666666667 39.4666666666667 0 0 1 252.672 91.968A97.5573333333334 97.5573333333334 0 0 1 234.2506666666667 122.624zM224.8106666666666 175.8826666666667A75.2533333333333 75.2533333333333 0 0 0 211.424 154.3893333333334C210.1653333333333 152.8106666666667 208.7573333333333 151.392 207.3386666666667 149.8026666666667A319.2533333333334 319.2533333333334 0 0 1 189.856 163.4026666666667A236.192 236.192 0 0 1 185.92 185.3653333333334L192.5333333333333 186.624A74.1866666666667 74.1866666666667 0 0 0 218.0373333333333 186.624C223.712 185.5253333333334 225.12 183.7866666666667 225.44 183.3173333333334C225.76 182.8373333333333 225.76 181.2586666666667 224.8 175.8826666666667zM189.856 94.1760000000001A281.3866666666667 281.3866666666667 0 0 1 207.3386666666666 107.616A56.5333333333333 56.5333333333333 0 0 0 211.424 103.0293333333334C216.9813333333333 96.8426666666667 221.504 89.8026666666667 224.8106666666666 82.1760000000001C226.5386666666666 76.64 225.7493333333333 74.592 224.8106666666666 74.1120000000001C223.8613333333333 73.6426666666667 223.072 71.7440000000001 217.4079999999999 70.6346666666667C208.9813333333333 69.1733333333334 200.3413333333333 69.1733333333334 191.9146666666666 70.6346666666667L185.4506666666666 71.7440000000001C186.8693333333333 79.1680000000001 188.1279999999999 86.6026666666667 189.0773333333333 94.1866666666667H189.856zM146.0906666666666 51.6693333333334A61.2266666666667 61.2266666666667 0 0 0 136.0213333333333 34.7626666666667C132.2453333333333 31.1360000000001 129.8773333333333 30.496 128.6186666666666 30.496A11.4773333333333 11.4773333333333 0 0 0 121.376 34.7626666666667A62.3146666666667 62.3146666666667 0 0 0 110.5173333333333 52.1493333333334C116.1813333333333 54.1973333333334 122.1653333333333 56.7360000000001 127.9893333333333 59.264C134.2826666666666 56.5760000000001 140.4266666666666 54.0373333333334 146.0906666666666 51.6693333333334zM128 93.2373333333333A253.2693333333334 253.2693333333334 0 0 0 112.256 101.6106666666667L97.6213333333333 110.464V128.32V147.1253333333333C102.336 150.1226666666667 107.2213333333333 153.1306666666667 112.096 155.808C116.9813333333333 158.496 122.656 161.664 127.84 164.3413333333333A249.92 249.92 0 0 0 143.584 155.808C148.6186666666667 152.8106666666666 154.2933333333334 149.4933333333333 159.328 146.176V111.4026666666667C154.1333333333333 107.9253333333333 148.7786666666667 104.768 143.584 101.6106666666667C138.3893333333333 98.4533333333333 133.344 95.7653333333333 128.0106666666667 93.2373333333333zM128 198.1653333333333L110.8373333333333 205.2693333333334A56.7466666666667 56.7466666666667 0 0 0 121.3973333333333 221.0773333333334C125.0133333333333 224.864 127.5306666666667 225.504 128.6293333333333 225.504C129.728 225.504 132.256 225.504 136.032 221.0773333333334C140.384 216.4586666666667 143.8933333333334 211.104 146.4213333333333 205.2693333333334C140.2773333333333 203.3813333333334 134.144 200.8533333333334 128 198.1653333333333zM49.28 149.8026666666667C47.872 151.392 46.4533333333333 152.8106666666667 45.1946666666667 154.3893333333334A75.264 75.264 0 0 0 31.7866666666667 175.8933333333334C29.8986666666667 181.2693333333334 30.848 183.3173333333334 31.7866666666667 183.9466666666667C32.736 184.5866666666667 33.5253333333333 186.1653333333333 39.1893333333333 187.2746666666667C42.2826666666667 187.616 45.3866666666667 187.616 48.4693333333333 187.2746666666667C53.7493333333333 187.1893333333333 59.0186666666667 186.7093333333334 64.224 185.8453333333334L71.936 184.2666666666667C70.5173333333333 177.632 69.2586666666667 170.6773333333334 68.3093333333333 163.5733333333334C61.856 159.616 55.4026666666667 154.72 49.5786666666667 149.8133333333333H49.2586666666667zM32.128 82.176A76.992 76.992 0 0 0 45.504 103.5093333333334C46.784 105.1093333333334 48.16 106.6346666666667 49.6 108.096C55.424 103.1893333333334 61.728 98.4533333333334 68.3306666666667 93.7066666666667C69.28 86.592 70.5386666666667 79.648 71.9573333333333 72.8533333333334L64.3946666666667 71.424C55.968 69.9626666666667 47.328 69.9626666666667 38.9013333333333 71.424C33.2266666666667 72.5333333333334 31.808 74.2720000000001 31.4986666666667 74.9013333333334C31.1786666666667 75.5413333333333 30.24 76.0106666666667 32.128 82.176z" />
    <glyph glyph-name="hide-lg"
      unicode="&#xEAB4;"
      horiz-adv-x="256" d="M39.984 181.04C57.792 149.008 90.752 128 128 128C165.248 128 198.192 149.008 216.016 181.04L253.312 160.304A149.184 149.184 0 0 0 217.584 117.504L242.224 92.88A10.72 10.72 0 0 0 242.352 77.68A10.656 10.656 0 0 0 227.136 77.808L199.824 105.072C188.784 98.512 176.88 93.472 164.464 90.128L170.352 66.576A10.672 10.672 0 0 0 149.648 61.424L143.472 86.16C133.184 85.04 122.816 85.04 112.528 86.16L106.352 61.424A10.656 10.656 0 1 0 85.6479999999999 66.576L91.536 90.128A140.848 140.848 0 0 0 56.1759999999999 105.072L28.8639999999999 77.808A10.672 10.672 0 0 0 13.8079999999999 92.88L38.4 117.504A148.784 148.784 0 0 0 2.688 160.304L39.968 181.04z" />
    <glyph glyph-name="kebab-xl"
      unicode="&#xEAB5;"
      horiz-adv-x="256" d="M160 213.3333333333334A32 32 0 1 1 96 213.3333333333334A32 32 0 0 1 160 213.3333333333334zM160 128A32 32 0 1 1 96 128A32 32 0 0 1 160 128zM160 42.6666666666667A32 32 0 1 1 96 42.6666666666667A32 32 0 0 1 160 42.6666666666667z" />
    <glyph glyph-name="comment-xl"
      unicode="&#xEAB8;"
      horiz-adv-x="256" d="M34.1333333333333 245.3333333333334H221.8666666666667A23.4666666666667 23.4666666666667 0 0 0 245.3333333333333 221.8666666666667V10.6666666666667L198.4 57.6H34.1333333333333A23.4666666666667 23.4666666666667 0 0 0 10.6666666666667 81.0666666666667V221.8666666666667A23.4666666666667 23.4666666666667 0 0 0 34.1333333333333 245.3333333333334z" />
    <glyph glyph-name="share-lg"
      unicode="&#xEAB9;"
      horiz-adv-x="256" d="M256 208A48 48 0 0 0 178.592 170.08L102.4 126.08L175.872 83.68A48 48 0 1 0 160.576 55.552L85.984 98.608A48 48 0 1 0 87.936 154.656L161.28 197.008A48 48 0 1 0 256 208z" />
    <glyph glyph-name="trash"
      unicode="&#xEABA;"
      horiz-adv-x="256" d="M192 208H240A16 16 0 1 0 240 176H16A16 16 0 0 0 16 208H64V240A16 16 0 0 0 80 256H176A16 16 0 0 0 192 240V208zM96 224V208H160V224H96zM40.0853333333333 14.4L32.8533333333333 144H223.168L215.9786666666667 14.4A16 16 0 0 0 200.064 0H56.064A16 16 0 0 0 40.064 14.4z" />
    <glyph glyph-name="launch-lg"
      unicode="&#xEABB;"
      horiz-adv-x="256" d="M42.672 213.328V42.672H213.328V85.328H256V42.672A42.672 42.672 0 0 0 213.328 0H42.672A42.672 42.672 0 0 0 0 42.672V213.328A42.672 42.672 0 0 0 42.672 256H85.328V213.328H42.672zM97.84 128L176.912 207.088L128 256H256V128L207.088 176.912L128 97.84L97.84 128z" />
    <glyph glyph-name="thumbs-up-lg"
      unicode="&#xEABF;"
      horiz-adv-x="256" d="M0 127.84H42.64V0H0V127.84zM143.504 159.792H212.256A40.192 40.192 0 0 0 245.84 143.808A40.48 40.48 0 0 0 255.44 110.256L242.64 36.752A42.8 42.8 0 0 0 201.072 0H63.952V127.84L101.936 247.68A10.656 10.656 0 0 0 111.536 255.68A28.032 28.032 0 0 0 143.504 223.712V159.792z" />
    <glyph glyph-name="thumbs-down-lg"
      unicode="&#xEAC0;"
      horiz-adv-x="256" d="M0 128.16H42.64V256H0V128.16zM143.504 96.208H212.256A40.192 40.192 0 0 1 245.84 112.192A40.48 40.48 0 0 1 255.44 145.744L242.64 219.248A42.8 42.8 0 0 1 201.072 256H63.952V128.16L101.936 8.32A10.656 10.656 0 0 1 111.536 0.32A28.032 28.032 0 0 1 143.504 32.288V96.208z" />
    <glyph glyph-name="warning-lg"
      unicode="&#xEAC1;"
      horiz-adv-x="256" d="M252.752 42.224L151.712 240.96A27.632 27.632 0 0 1 140.784 252.56A25.568 25.568 0 0 1 120.272 254.8A27.52 27.52 0 0 1 104.24 240.96L3.216 42.224A30.192 30.192 0 0 1 3.824 13.904C6.224 9.632 9.632 6.112 13.68 3.664C17.744 1.248 22.32 -0.016 26.976 0H228.992C233.456 0 237.84 1.168 241.792 3.408C244.912 5.168 247.664 7.584 249.904 10.496S253.84 16.768 254.864 20.368A30.336 30.336 0 0 1 252.752 42.224zM128 34.128A15.296 15.296 0 0 0 119.12 37.008A16.88 16.88 0 0 0 113.216 44.672A18.128 18.128 0 0 0 112.32 54.528A17.44 17.44 0 0 0 116.688 63.264C118.928 65.664 121.776 67.264 124.88 67.936A15.072 15.072 0 0 0 134.128 66.9759999999999C137.04 65.68 139.552 63.4879999999999 141.296 60.6879999999999A17.888 17.888 0 0 0 139.312 39.1359999999999A15.52 15.52 0 0 0 128 34.1279999999999zM144 93.872A8.832 8.832 0 0 0 141.648 87.824A7.76 7.76 0 0 0 136 85.328H120A7.76 7.76 0 0 0 114.352 87.824A8.832 8.832 0 0 0 112 93.872V162.128C112 164.4 112.848 166.56 114.352 168.16C115.84 169.76 117.872 170.656 120 170.656H136C138.128 170.656 140.16 169.76 141.648 168.16C143.152 166.56 144 164.4 144 162.128V93.872z" />
    <glyph glyph-name="wizard-circle-xl"
      unicode="&#xEAC2;"
      horiz-adv-x="256" d="M256 128C256 57.312 198.688 0 128 0S0 57.312 0 128S57.312 256 128 256S256 198.688 256 128z" />
    <glyph glyph-name="bell-cross-lg"
      unicode="&#xEAC4;"
      horiz-adv-x="256" d="M11.312 20.688L235.312 244.688L224 256L192.224 224.224C177.744 243.632 154.56 256 128 256C83.2 256 48 220.8 48 176V128C48 107.2 35.2 91.2 24 80H16C6.4 80 0 73.6 0 64S6.4 48 16 48L0 32L11.312 20.688zM75.312 48H240C249.6 48 256 54.4 256 64S249.6 80 240 80H232C220.8 91.2 208 107.2 208 128V180.688L75.312 48zM128 0C110.4 0 96 14.4 96 32H160C160 14.4 145.6 0 128 0z" />
    <glyph glyph-name="bell-lg"
      unicode="&#xEAC5;"
      horiz-adv-x="256" d="M232 80H240C249.6 80 256 73.6 256 64S249.6 48 240 48H16C6.4 48 0 54.4 0 64S6.4 80 16 80H24C35.2 91.2 48 107.2 48 128V176C48 220.8 83.2 256 128 256S208 220.8 208 176V128C208 107.2 220.8 91.2 232 80zM128 0C110.4 0 96 14.4 96 32H160C160 14.4 145.6 0 128 0z" />
    <glyph glyph-name="daily-lg"
      unicode="&#xEAC6;"
      horiz-adv-x="256" d="M108 44V64.8L121.952 66.176V123.776L107.92 127.296L110.192 148H150.592V66.1760000000001L164 64.7840000000001V44.0000000000001H108zM48 224V256H80V224H176V256H208V224H224C240.432 224 256 211.408 256 193.232V30.768C256 12.592 240.432 0 224 0H32C15.568 0 0 12.592 0 30.768V193.232C0 211.408 15.568 224 32 224H48zM224 160H32V32H224V160z" />
    <glyph glyph-name="cloud-download-lg"
      unicode="&#xEAC7;"
      horiz-adv-x="256" d="M208 126.4V128C208 172.8 172.8 208 128 208C88 208 54.4 179.2 49.6 139.2C20.8 129.6 0 104 0 72C0 32 32 0 72 0H192C227.2 0 256 28.8 256 64C256 94.4 235.2 118.4 208 126.4zM128 32L64 96H112V144H144V96H192L128 32z" />
    <glyph glyph-name="unlock"
      unicode="&#xEAC8;"
      horiz-adv-x="256" d="M85.4613333333333 192A21.3333333333333 21.3333333333333 0 0 1 42.7946666666667 192L42.6666666666667 170.6666666666667H0V192C0 208.9813333333334 6.8693333333333 225.2586666666667 18.88 237.248A64 64 0 0 0 128.128 192V149.3333333333334H234.6666666666667A21.3333333333333 21.3333333333333 0 0 0 256 128V21.3333333333334A21.3333333333333 21.3333333333333 0 0 0 234.6666666666667 0H64A21.3333333333333 21.3333333333333 0 0 0 42.6666666666667 21.3333333333334V42.6666666666667H213.3333333333333V106.6666666666667H85.3333333333333V42.6666666666667H42.6666666666667V128A21.3333333333333 21.3333333333333 0 0 0 64 149.3333333333333H85.4613333333333V192z" />
    <glyph glyph-name="news-lg"
      unicode="&#xEAC9;"
      horiz-adv-x="256" d="M224 256H32C22.4 256 16 249.6 16 240V16C16 6.4 22.4 0 32 0H224C233.6 0 240 6.4 240 16V240C240 249.6 233.6 256 224 256zM208 32H48V224H208V32zM128 208H64V144H128V208zM192 192H144V176H192V192zM192 160H144V144H192V160zM192 128H64V112H192V128zM192 96H64V80H192V96zM144 64H64V48H144V64z" />
    <glyph glyph-name="weekly-lg"
      unicode="&#xEACA;"
      horiz-adv-x="256" d="M138.272 118.992L103.952 44H133.056L168.992 126.288V143.248H95.44V118.992H138.272zM48 224V256H80V224H176V256H208V224H224C240.432 224 256 211.408 256 193.232V30.768C256 12.592 240.432 0 224 0H32C15.568 0 0 12.592 0 30.768V193.232C0 211.408 15.568 224 32 224H48zM224 160H32V32H224V160z" />
    <glyph glyph-name="knowledgebase-xl"
      unicode="&#xEACB;"
      horiz-adv-x="256" d="M184 240A96.8533333333333 96.8533333333333 0 0 1 128 224A96.8533333333333 96.8533333333333 0 0 1 72 240C30.4 240 0 220.8 0 193.6V1.6C2.4533333333333 3.84 4.9066666666667 6.1866666666667 7.2533333333333 8.64C25.6 26.24 44.6933333333333 44.8 72 44.8S112 33.6 112 30.4A14.9333333333333 14.9333333333333 0 0 1 128 16A14.9333333333333 14.9333333333333 0 0 1 144 30.4C144 32 156.8 43.2 184 43.2S229.6533333333334 25.4933333333333 248.0000000000001 8.7466666666667L256 1.6V193.6C256 220.8 225.6 240 184 240zM224 65.6A105.0666666666667 105.0666666666667 0 0 1 184 75.2A111.7866666666667 111.7866666666667 0 0 1 144 67.9466666666667V128H112V67.9466666666667A111.7866666666667 111.7866666666667 0 0 1 72 74.6666666666667A82.1333333333333 82.1333333333333 0 0 1 32 65.0666666666667V193.0666666666667C32 196.8 44.8 208 72 208S112 197.3333333333334 112 193.6V128H144V193.6C144 196.8 156.8 208 184 208S224 196.8 224 193.6z" />
    <glyph glyph-name="remove"
      unicode="&#xEACC;"
      horiz-adv-x="256" d="M128 0A128 128 0 1 1 128 256A128 128 0 0 1 128 0zM85.3333333333333 200.832L128 158.1653333333333L170.6666666666667 200.832L200.832 170.6666666666667L158.1653333333333 128L200.832 85.3333333333333L170.6666666666667 55.168L128 97.8346666666667L85.3333333333333 55.168L55.168 85.3333333333333L97.8346666666667 128L55.168 170.6666666666667L85.3333333333333 200.832z" />
    <glyph glyph-name="chevron-down"
      unicode="&#xEACD;"
      horiz-adv-x="256" d="M27.584 185.7493333333334A21.3333333333333 21.3333333333333 0 0 0 57.7493333333333 185.7493333333334L128 115.4986666666667L198.2506666666667 185.7493333333334A21.3333333333333 21.3333333333333 0 0 0 228.416 155.584L143.0826666666667 70.2506666666667A21.3333333333333 21.3333333333333 0 0 0 112.9173333333334 70.2506666666667L27.584 155.584A21.3333333333333 21.3333333333333 0 0 0 27.584 185.7493333333334z" />
    <glyph glyph-name="slicers-lg"
      unicode="&#xEACE;"
      horiz-adv-x="256" d="M0 213.328C0 225.12 9.552 234.656 21.328 234.656H234.672A21.328 21.328 0 0 0 234.672 192H21.328A21.328 21.328 0 0 0 0 213.328zM25.6 128C25.6 116.208 35.152 106.656 46.928 106.656H209.072A21.328 21.328 0 0 1 209.072 149.328H46.928C35.152 149.328 25.6 139.776 25.6 128zM51.2 42.656C51.2 30.88 60.752 21.328 72.528 21.328H183.472A21.328 21.328 0 0 1 183.472 64H72.528C60.752 64 51.2 54.448 51.2 42.656z" />
    <glyph glyph-name="save-lg"
      unicode="&#xEACF;"
      horiz-adv-x="256" d="M176 256C180.8 256 184 254.4 187.2 251.2L251.2 187.2C254.4 184 256 180.8 256 176V16C256 6.4 249.6 0 240 0H16C6.4 0 0 6.4 0 16V240C0 249.6 6.4 256 16 256H176zM160 224H48V208C48 198.4 54.4 192 64 192H144C153.6 192 160 198.4 160 208V224zM48 32H208V80C208 89.6 201.6 96 192 96H64C54.4 96 48 89.6 48 80V32z" />
    <glyph glyph-name="info-circle-lg"
      unicode="&#xEAD0;"
      horiz-adv-x="256" d="M0 128C0 198.4 57.6 256 128 256S256 198.4 256 128S198.4 0 128 0S0 57.6 0 128zM106.672 149.328V42.672H149.328V149.328H106.672zM128 170.672A21.328 21.328 0 1 1 128 213.328A21.328 21.328 0 0 1 128 170.672z" />
    <glyph glyph-name="chevron-right"
      unicode="&#xEAD1;"
      horiz-adv-x="256" d="M70.2506666666667 27.584A21.3333333333333 21.3333333333333 0 0 0 70.2506666666667 57.7493333333333L140.5013333333333 128L70.2506666666667 198.2506666666667A21.3333333333333 21.3333333333333 0 0 0 100.416 228.416L185.7493333333333 143.0826666666667A21.3333333333333 21.3333333333333 0 0 0 185.7493333333333 112.9173333333334L100.416 27.584A21.3333333333333 21.3333333333333 0 0 0 70.2506666666667 27.584z" />
    <glyph glyph-name="warning-circle-lg"
      unicode="&#xEAD2;"
      horiz-adv-x="256" d="M256 128C256 57.6 198.4 0 128 0S0 57.6 0 128S57.6 256 128 256S256 198.4 256 128zM133.328 106.672A16 16 0 0 1 149.328 122.672V197.328A16 16 0 0 1 133.328 213.328H122.672A16 16 0 0 1 106.672 197.328V122.672A16 16 0 0 1 122.672 106.672H133.328zM128 85.328A21.328 21.328 0 1 1 128 42.672A21.328 21.328 0 0 1 128 85.328z" />
    <glyph glyph-name="right-paren-line-lg"
      unicode="&#xEAD3;"
      horiz-adv-x="256" d="M160 127.36A109.6 109.6 0 0 0 154.592 92.48A87.2 87.2 0 0 0 138.832 64H105.28A101.232 101.232 0 0 1 120.256 93.808A111.584 111.584 0 0 1 120.176 160.528A101.6 101.6 0 0 1 105.408 189.584H138.848C145.728 181.616 150.992 172.304 154.608 161.664C158.208 151.024 160.016 139.584 160.016 127.344zM256 128C256 57.6 198.4 0 128 0S0 57.6 0 128S57.6 256 128 256S256 198.4 256 128zM224 128C224 180.8 180.8 224 128 224S32 180.8 32 128S75.2 32 128 32S224 75.2 224 128z" />
    <glyph glyph-name="comment-lg"
      unicode="&#xEAD4;"
      horiz-adv-x="256" d="M230.4 256H25.6A25.6 25.6 0 0 1 0 230.4V76.8A25.6 25.6 0 0 1 25.6 51.2H204.8L256 0V230.4A25.6 25.6 0 0 1 230.4 256z" />
    <glyph glyph-name="target-lg"
      unicode="&#xEAD5;"
      horiz-adv-x="256" d="M128 80A48 48 0 1 1 128 176A48 48 0 0 1 128 80zM0 128C0 198.4 57.6 256 128 256S256 198.4 256 128S198.4 0 128 0S0 57.6 0 128zM32 128C32 75.2 75.2 32 128 32S224 75.2 224 128S180.8 224 128 224S32 180.8 32 128z" />
    <glyph glyph-name="subtract-line-lg"
      unicode="&#xEAD6;"
      horiz-adv-x="256" d="M192 144H64V112H192V144zM128 256C57.6 256 0 198.4 0 128S57.6 0 128 0S256 57.6 256 128S198.4 256 128 256zM128 32C75.2 32 32 75.2 32 128S75.2 224 128 224S224 180.8 224 128S180.8 32 128 32z" />
    <glyph glyph-name="settings-lg"
      unicode="&#xEAD7;"
      horiz-adv-x="256" d="M80 128C80 155.2 100.8 176 128 176S176 155.2 176 128S155.2 80 128 80S80 100.8 80 128zM112 128C112 118.4 118.4 112 128 112S144 118.4 144 128S137.6 144 128 144S112 137.6 112 128zM248 150.4L228.8 139.2V116.8L248 105.6C252.8 104 254.4 100.8 256 96C256 91.2 256 86.4 252.8 84.8L230.4 46.4C227.2 38.4 217.6 35.2 209.6 40L188.8 51.2C186.56 49.856 184.448 48.512 182.4 47.2C177.088 43.84 172.16 40.704 166.4 38.4V16C166.4 6.4 160 0 150.4 0H104C94.4 0 88 6.4 88 16V36.8C80 40 72 44.8 65.6 49.6L44.8 38.4C38.4 35.2 28.8 36.8 24 44.8L1.6 83.2L0.992 84.992C-0.352 88.848 -1.392 91.824 0 96C1.6 99.2 4.8 104 8 105.6L27.2 116.8V139.2L8 150.4C3.2 152 1.6 155.2 0 160C0 164.8 0 169.6 1.6 172.8L25.6 211.2C30.4 219.2 40 220.8 46.4 217.6L67.2 206.4C73.6 211.2 81.6 216 88 217.6V240C88 249.6 94.4 256 104 256H152C161.6 256 168 249.6 168 240V219.2C176 216 184 211.2 190.4 206.4L211.2 217.6C217.6 220.8 227.2 219.2 232.0000000000001 211.2L254.4000000000001 172.8L255.0080000000001 171.008C256.3680000000001 167.152 257.408 164.176 256.0000000000001 160C254.4000000000001 156.8 251.2000000000001 152 248.0000000000001 150.4zM185.6 88L211.2 73.6L217.6 84.8L192 99.2L195.2 112C196.8 116.8 196.8 123.2 196.8 128C196.8 132.8 196.8 139.2 195.2 144L192 156.8L216 171.2L209.6 182.4L184 168L176 176C168 184 158.4 188.8 147.2 192L134.4 195.2V224H120V195.2L108.8 192C97.6 188.8 88 184 80 176L70.4 168L44.8 182.4L38.4 171.2L64 156.8L60.8 144C59.2 139.2 59.2 132.8 59.2 128C59.2 123.2 59.2 116.8 60.8 112L64 99.2L40 84.8L46.4 73.6L72 88L80 80C88 72 97.6 67.2 108.8 64L121.6 60.8V32H136V60.8L147.2 64C158.4 67.2 168 72 176 80L185.6 88z" />
    <glyph glyph-name="left-paren-line-lg"
      unicode="&#xEAD8;"
      horiz-adv-x="256" d="M96 128.64C96 141.072 97.808 152.688 101.408 163.52A87.2 87.2 0 0 0 117.168 192H150.72A101.248 101.248 0 0 1 135.744 162.192A111.584 111.584 0 0 1 135.824 95.472A101.6 101.6 0 0 1 150.592 66.416H117.152A82.864 82.864 0 0 0 101.392 94.336A106.128 106.128 0 0 0 96 128.656zM0 128C0 198.4 57.6 256 128 256S256 198.4 256 128S198.4 0 128 0S0 57.6 0 128zM32 128C32 75.2 75.2 32 128 32S224 75.2 224 128S180.8 224 128 224S32 180.8 32 128z" />
    </font>
</defs>
</svg>
