<svg width="183" height="183" viewBox="0 0 183 183" fill="none" xmlns="http://www.w3.org/2000/svg">
<mask id="path-1-outside-1_3985_70073" maskUnits="userSpaceOnUse" x="-0.176033" y="-7.91176e-06" width="183" height="176" fill="black">
<rect fill="white" x="-0.176033" y="-7.91176e-06" width="183" height="176"/>
<path d="M54.0992 172.666C38.0287 165.286 24.5074 153.307 15.2452 138.242C5.98295 123.178 1.39585 105.705 2.06393 88.0341C2.73201 70.3627 8.62526 53.2862 18.9984 38.9642C29.3716 24.6421 43.7588 13.7177 60.3407 7.57239C76.9226 1.42707 94.9545 0.336854 112.156 4.43961C129.357 8.54237 144.956 17.6538 156.979 30.6218C169.002 43.5898 176.91 59.8318 179.702 77.2939C182.495 94.7561 180.046 112.654 172.666 128.725L137.928 112.773C142.153 103.573 143.555 93.3264 141.956 83.3297C140.358 73.333 135.831 64.0347 128.948 56.6109C122.065 49.187 113.135 43.9709 103.287 41.6221C93.44 39.2734 83.1172 39.8975 73.6244 43.4156C64.1316 46.9336 55.8952 53.1876 49.9568 61.3867C44.0184 69.5858 40.6446 79.3617 40.2621 89.4782C39.8797 99.5947 42.5057 109.597 47.8081 118.221C53.1105 126.845 60.8512 133.704 70.0512 137.928L54.0992 172.666Z"/>
</mask>
<path d="M54.0992 172.666C38.0287 165.286 24.5074 153.307 15.2452 138.242C5.98295 123.178 1.39585 105.705 2.06393 88.0341C2.73201 70.3627 8.62526 53.2862 18.9984 38.9642C29.3716 24.6421 43.7588 13.7177 60.3407 7.57239C76.9226 1.42707 94.9545 0.336854 112.156 4.43961C129.357 8.54237 144.956 17.6538 156.979 30.6218C169.002 43.5898 176.91 59.8318 179.702 77.2939C182.495 94.7561 180.046 112.654 172.666 128.725L137.928 112.773C142.153 103.573 143.555 93.3264 141.956 83.3297C140.358 73.333 135.831 64.0347 128.948 56.6109C122.065 49.187 113.135 43.9709 103.287 41.6221C93.44 39.2734 83.1172 39.8975 73.6244 43.4156C64.1316 46.9336 55.8952 53.1876 49.9568 61.3867C44.0184 69.5858 40.6446 79.3617 40.2621 89.4782C39.8797 99.5947 42.5057 109.597 47.8081 118.221C53.1105 126.845 60.8512 133.704 70.0512 137.928L54.0992 172.666Z" fill="#6CDF46"/>
<path d="M54.0992 172.666C38.0287 165.286 24.5074 153.307 15.2452 138.242C5.98295 123.178 1.39585 105.705 2.06393 88.0341C2.73201 70.3627 8.62526 53.2862 18.9984 38.9642C29.3716 24.6421 43.7588 13.7177 60.3407 7.57239C76.9226 1.42707 94.9545 0.336854 112.156 4.43961C129.357 8.54237 144.956 17.6538 156.979 30.6218C169.002 43.5898 176.91 59.8318 179.702 77.2939C182.495 94.7561 180.046 112.654 172.666 128.725L137.928 112.773C142.153 103.573 143.555 93.3264 141.956 83.3297C140.358 73.333 135.831 64.0347 128.948 56.6109C122.065 49.187 113.135 43.9709 103.287 41.6221C93.44 39.2734 83.1172 39.8975 73.6244 43.4156C64.1316 46.9336 55.8952 53.1876 49.9568 61.3867C44.0184 69.5858 40.6446 79.3617 40.2621 89.4782C39.8797 99.5947 42.5057 109.597 47.8081 118.221C53.1105 126.845 60.8512 133.704 70.0512 137.928L54.0992 172.666Z" stroke="black" stroke-width="4" mask="url(#path-1-outside-1_3985_70073)"/>
<mask id="path-2-outside-2_3985_70073" maskUnits="userSpaceOnUse" x="-0.176033" y="-7.91176e-06" width="178" height="176" fill="black">
<rect fill="white" x="-0.176033" y="-7.91176e-06" width="178" height="176"/>
<path d="M54.0992 172.666C40.7369 166.53 29.0941 157.193 20.2021 145.483C11.3101 133.772 5.44346 120.049 3.12174 105.53C0.800024 91.0105 2.09494 76.1426 6.89178 62.2431C11.6886 48.3437 19.8393 35.8418 30.6219 25.8448C41.4045 15.8478 54.4861 8.66427 68.7081 4.93058C82.93 1.19689 97.8533 1.02826 112.156 4.43961C126.459 7.85097 139.699 14.737 150.705 24.4878C161.711 34.2386 170.142 46.5531 175.252 60.3406L139.408 73.6243C136.483 65.7312 131.657 58.6814 125.356 53.0993C119.055 47.5172 111.475 43.575 103.287 41.6221C95.0995 39.6692 86.5563 39.7657 78.4145 41.9032C70.2727 44.0406 62.7838 48.153 56.611 53.8761C50.4382 59.5992 45.7721 66.7563 43.026 74.7134C40.2799 82.6705 39.5386 91.1821 40.8677 99.4942C42.1968 107.806 45.5554 115.662 50.6459 122.366C55.7363 129.07 62.4016 134.415 70.0512 137.928L54.0992 172.666Z"/>
</mask>
<path d="M54.0992 172.666C40.7369 166.53 29.0941 157.193 20.2021 145.483C11.3101 133.772 5.44346 120.049 3.12174 105.53C0.800024 91.0105 2.09494 76.1426 6.89178 62.2431C11.6886 48.3437 19.8393 35.8418 30.6219 25.8448C41.4045 15.8478 54.4861 8.66427 68.7081 4.93058C82.93 1.19689 97.8533 1.02826 112.156 4.43961C126.459 7.85097 139.699 14.737 150.705 24.4878C161.711 34.2386 170.142 46.5531 175.252 60.3406L139.408 73.6243C136.483 65.7312 131.657 58.6814 125.356 53.0993C119.055 47.5172 111.475 43.575 103.287 41.6221C95.0995 39.6692 86.5563 39.7657 78.4145 41.9032C70.2727 44.0406 62.7838 48.153 56.611 53.8761C50.4382 59.5992 45.7721 66.7563 43.026 74.7134C40.2799 82.6705 39.5386 91.1821 40.8677 99.4942C42.1968 107.806 45.5554 115.662 50.6459 122.366C55.7363 129.07 62.4016 134.415 70.0512 137.928L54.0992 172.666Z" fill="#00BA83"/>
<path d="M54.0992 172.666C40.7369 166.53 29.0941 157.193 20.2021 145.483C11.3101 133.772 5.44346 120.049 3.12174 105.53C0.800024 91.0105 2.09494 76.1426 6.89178 62.2431C11.6886 48.3437 19.8393 35.8418 30.6219 25.8448C41.4045 15.8478 54.4861 8.66427 68.7081 4.93058C82.93 1.19689 97.8533 1.02826 112.156 4.43961C126.459 7.85097 139.699 14.737 150.705 24.4878C161.711 34.2386 170.142 46.5531 175.252 60.3406L139.408 73.6243C136.483 65.7312 131.657 58.6814 125.356 53.0993C119.055 47.5172 111.475 43.575 103.287 41.6221C95.0995 39.6692 86.5563 39.7657 78.4145 41.9032C70.2727 44.0406 62.7838 48.153 56.611 53.8761C50.4382 59.5992 45.7721 66.7563 43.026 74.7134C40.2799 82.6705 39.5386 91.1821 40.8677 99.4942C42.1968 107.806 45.5554 115.662 50.6459 122.366C55.7363 129.07 62.4016 134.415 70.0512 137.928L54.0992 172.666Z" stroke="black" stroke-width="4" mask="url(#path-2-outside-2_3985_70073)"/>
<mask id="path-3-outside-3_3985_70073" maskUnits="userSpaceOnUse" x="-0.176033" y="-7.91176e-06" width="152" height="176" fill="black">
<rect fill="white" x="-0.176033" y="-7.91176e-06" width="152" height="176"/>
<path d="M54.0992 172.666C42.5331 167.355 32.2341 159.636 23.891 150.024C15.5478 140.413 9.35269 129.131 5.71984 116.933C2.08699 104.735 1.10014 91.9026 2.82526 79.2927C4.55038 66.6828 8.94771 54.5865 15.7232 43.8125C22.4988 33.0386 31.4964 23.8353 42.1145 16.8181C52.7325 9.80081 64.7264 5.13126 77.2941 3.12163C89.8618 1.11201 102.714 1.80862 114.991 5.16491C127.267 8.52119 138.686 14.4598 148.484 22.5836L124.084 52.0092C118.476 47.3584 111.938 43.9587 104.91 42.0373C97.882 40.1159 90.5245 39.7171 83.3298 40.8676C76.1351 42.0181 69.2688 44.6913 63.1902 48.7085C57.1116 52.7258 51.9607 57.9944 48.0818 64.1623C44.2029 70.3301 41.6856 77.255 40.698 84.4739C39.7104 91.6928 40.2753 99.0394 42.3551 106.022C44.4348 113.005 47.9814 119.464 52.7576 124.966C57.5339 130.468 63.4299 134.888 70.0512 137.928L54.0992 172.666Z"/>
</mask>
<path d="M54.0992 172.666C42.5331 167.355 32.2341 159.636 23.891 150.024C15.5478 140.413 9.35269 129.131 5.71984 116.933C2.08699 104.735 1.10014 91.9026 2.82526 79.2927C4.55038 66.6828 8.94771 54.5865 15.7232 43.8125C22.4988 33.0386 31.4964 23.8353 42.1145 16.8181C52.7325 9.80081 64.7264 5.13126 77.2941 3.12163C89.8618 1.11201 102.714 1.80862 114.991 5.16491C127.267 8.52119 138.686 14.4598 148.484 22.5836L124.084 52.0092C118.476 47.3584 111.938 43.9587 104.91 42.0373C97.882 40.1159 90.5245 39.7171 83.3298 40.8676C76.1351 42.0181 69.2688 44.6913 63.1902 48.7085C57.1116 52.7258 51.9607 57.9944 48.0818 64.1623C44.2029 70.3301 41.6856 77.255 40.698 84.4739C39.7104 91.6928 40.2753 99.0394 42.3551 106.022C44.4348 113.005 47.9814 119.464 52.7576 124.966C57.5339 130.468 63.4299 134.888 70.0512 137.928L54.0992 172.666Z" fill="#00E0E0"/>
<path d="M54.0992 172.666C42.5331 167.355 32.2341 159.636 23.891 150.024C15.5478 140.413 9.35269 129.131 5.71984 116.933C2.08699 104.735 1.10014 91.9026 2.82526 79.2927C4.55038 66.6828 8.94771 54.5865 15.7232 43.8125C22.4988 33.0386 31.4964 23.8353 42.1145 16.8181C52.7325 9.80081 64.7264 5.13126 77.2941 3.12163C89.8618 1.11201 102.714 1.80862 114.991 5.16491C127.267 8.52119 138.686 14.4598 148.484 22.5836L124.084 52.0092C118.476 47.3584 111.938 43.9587 104.91 42.0373C97.882 40.1159 90.5245 39.7171 83.3298 40.8676C76.1351 42.0181 69.2688 44.6913 63.1902 48.7085C57.1116 52.7258 51.9607 57.9944 48.0818 64.1623C44.2029 70.3301 41.6856 77.255 40.698 84.4739C39.7104 91.6928 40.2753 99.0394 42.3551 106.022C44.4348 113.005 47.9814 119.464 52.7576 124.966C57.5339 130.468 63.4299 134.888 70.0512 137.928L54.0992 172.666Z" stroke="black" stroke-width="4" mask="url(#path-3-outside-3_3985_70073)"/>
<mask id="path-4-outside-4_3985_70073" maskUnits="userSpaceOnUse" x="-0.176033" y="15" width="73" height="161" fill="black">
<rect fill="white" x="-0.176033" y="15" width="73" height="161"/>
<path d="M54.0992 172.666C39.8362 166.116 27.5484 155.928 18.4711 143.124C9.39377 130.32 3.8467 115.352 2.38742 99.7252C0.928129 84.0981 3.60805 68.3622 10.1578 54.0991C16.7076 39.836 26.8964 27.5483 39.7002 18.471L61.8081 49.6548C54.4782 54.8513 48.6453 61.8858 44.8957 70.0511C41.1461 78.2165 39.6119 87.2249 40.4473 96.1711C41.2827 105.117 44.4583 113.686 49.6549 121.016C54.8515 128.346 61.8859 134.179 70.0512 137.928L54.0992 172.666Z"/>
</mask>
<path d="M54.0992 172.666C39.8362 166.116 27.5484 155.928 18.4711 143.124C9.39377 130.32 3.8467 115.352 2.38742 99.7252C0.928129 84.0981 3.60805 68.3622 10.1578 54.0991C16.7076 39.836 26.8964 27.5483 39.7002 18.471L61.8081 49.6548C54.4782 54.8513 48.6453 61.8858 44.8957 70.0511C41.1461 78.2165 39.6119 87.2249 40.4473 96.1711C41.2827 105.117 44.4583 113.686 49.6549 121.016C54.8515 128.346 61.8859 134.179 70.0512 137.928L54.0992 172.666Z" fill="#36B0FF"/>
<path d="M54.0992 172.666C39.8362 166.116 27.5484 155.928 18.4711 143.124C9.39377 130.32 3.8467 115.352 2.38742 99.7252C0.928129 84.0981 3.60805 68.3622 10.1578 54.0991C16.7076 39.836 26.8964 27.5483 39.7002 18.471L61.8081 49.6548C54.4782 54.8513 48.6453 61.8858 44.8957 70.0511C41.1461 78.2165 39.6119 87.2249 40.4473 96.1711C41.2827 105.117 44.4583 113.686 49.6549 121.016C54.8515 128.346 61.8859 134.179 70.0512 137.928L54.0992 172.666Z" stroke="black" stroke-width="4" mask="url(#path-4-outside-4_3985_70073)"/>
<mask id="path-5-outside-5_3985_70073" maskUnits="userSpaceOnUse" x="-1" y="73" width="177" height="110" fill="black">
<rect fill="white" x="-1" y="73" width="177" height="110"/>
<path d="M172.666 128.725C163.586 148.499 147.606 164.283 127.721 173.12C107.836 181.956 85.4118 183.238 64.6497 176.725C43.8877 170.212 26.2133 156.351 14.9386 137.74C3.66395 119.13 -0.437029 97.046 3.40418 75.6281L41.0293 82.376C38.8303 94.6373 41.1781 107.28 47.6326 117.934C54.0871 128.588 64.2053 136.523 76.0911 140.252C87.977 143.98 100.815 143.246 112.198 138.188C123.582 133.129 132.73 124.093 137.928 112.773L172.666 128.725Z"/>
</mask>
<path d="M172.666 128.725C163.586 148.499 147.606 164.283 127.721 173.12C107.836 181.956 85.4118 183.238 64.6497 176.725C43.8877 170.212 26.2133 156.351 14.9386 137.74C3.66395 119.13 -0.437029 97.046 3.40418 75.6281L41.0293 82.376C38.8303 94.6373 41.1781 107.28 47.6326 117.934C54.0871 128.588 64.2053 136.523 76.0911 140.252C87.977 143.98 100.815 143.246 112.198 138.188C123.582 133.129 132.73 124.093 137.928 112.773L172.666 128.725Z" fill="#517BF8"/>
<path d="M172.666 128.725C163.586 148.499 147.606 164.283 127.721 173.12C107.836 181.956 85.4118 183.238 64.6497 176.725C43.8877 170.212 26.2133 156.351 14.9386 137.74C3.66395 119.13 -0.437029 97.046 3.40418 75.6281L41.0293 82.376C38.8303 94.6373 41.1781 107.28 47.6326 117.934C54.0871 128.588 64.2053 136.523 76.0911 140.252C87.977 143.98 100.815 143.246 112.198 138.188C123.582 133.129 132.73 124.093 137.928 112.773L172.666 128.725Z" stroke="black" stroke-width="4" mask="url(#path-5-outside-5_3985_70073)"/>
</svg>
