<svg width="183" height="183" viewBox="0 0 183 183" fill="none" xmlns="http://www.w3.org/2000/svg">
<mask id="path-1-outside-1_3800_71942" maskUnits="userSpaceOnUse" x="-0.176033" y="-7.91176e-06" width="183" height="176" fill="black">
<rect fill="white" x="-0.176033" y="-7.91176e-06" width="183" height="176"/>
<path d="M54.0992 172.666C38.0287 165.286 24.5074 153.307 15.2452 138.242C5.98295 123.178 1.39585 105.705 2.06393 88.0341C2.73201 70.3627 8.62526 53.2862 18.9984 38.9642C29.3716 24.6421 43.7588 13.7177 60.3407 7.57239C76.9226 1.42707 94.9545 0.336854 112.156 4.43961C129.357 8.54237 144.956 17.6538 156.979 30.6218C169.002 43.5898 176.91 59.8318 179.702 77.2939C182.495 94.7561 180.046 112.654 172.666 128.725L91.412 91.4119L54.0992 172.666Z"/>
</mask>
<path d="M54.0992 172.666C38.0287 165.286 24.5074 153.307 15.2452 138.242C5.98295 123.178 1.39585 105.705 2.06393 88.0341C2.73201 70.3627 8.62526 53.2862 18.9984 38.9642C29.3716 24.6421 43.7588 13.7177 60.3407 7.57239C76.9226 1.42707 94.9545 0.336854 112.156 4.43961C129.357 8.54237 144.956 17.6538 156.979 30.6218C169.002 43.5898 176.91 59.8318 179.702 77.2939C182.495 94.7561 180.046 112.654 172.666 128.725L91.412 91.4119L54.0992 172.666Z" fill="#6CDF46"/>
<path d="M54.0992 172.666C38.0287 165.286 24.5074 153.307 15.2452 138.242C5.98295 123.178 1.39585 105.705 2.06393 88.0341C2.73201 70.3627 8.62526 53.2862 18.9984 38.9642C29.3716 24.6421 43.7588 13.7177 60.3407 7.57239C76.9226 1.42707 94.9545 0.336854 112.156 4.43961C129.357 8.54237 144.956 17.6538 156.979 30.6218C169.002 43.5898 176.91 59.8318 179.702 77.2939C182.495 94.7561 180.046 112.654 172.666 128.725L91.412 91.4119L54.0992 172.666Z" stroke="white" stroke-width="4" mask="url(#path-1-outside-1_3800_71942)"/>
<mask id="path-2-outside-2_3800_71942" maskUnits="userSpaceOnUse" x="-0.176033" y="-7.91176e-06" width="178" height="176" fill="black">
<rect fill="white" x="-0.176033" y="-7.91176e-06" width="178" height="176"/>
<path d="M54.0992 172.666C40.7369 166.53 29.0941 157.193 20.2021 145.483C11.3101 133.772 5.44346 120.049 3.12174 105.53C0.800024 91.0105 2.09494 76.1426 6.89178 62.2431C11.6886 48.3437 19.8393 35.8418 30.6219 25.8448C41.4045 15.8478 54.4861 8.66427 68.7081 4.93058C82.93 1.19689 97.8533 1.02826 112.156 4.43961C126.459 7.85097 139.699 14.737 150.705 24.4878C161.711 34.2386 170.142 46.5531 175.252 60.3406L91.412 91.4119L54.0992 172.666Z"/>
</mask>
<path d="M54.0992 172.666C40.7369 166.53 29.0941 157.193 20.2021 145.483C11.3101 133.772 5.44346 120.049 3.12174 105.53C0.800024 91.0105 2.09494 76.1426 6.89178 62.2431C11.6886 48.3437 19.8393 35.8418 30.6219 25.8448C41.4045 15.8478 54.4861 8.66427 68.7081 4.93058C82.93 1.19689 97.8533 1.02826 112.156 4.43961C126.459 7.85097 139.699 14.737 150.705 24.4878C161.711 34.2386 170.142 46.5531 175.252 60.3406L91.412 91.4119L54.0992 172.666Z" fill="#00BA83"/>
<path d="M54.0992 172.666C40.7369 166.53 29.0941 157.193 20.2021 145.483C11.3101 133.772 5.44346 120.049 3.12174 105.53C0.800024 91.0105 2.09494 76.1426 6.89178 62.2431C11.6886 48.3437 19.8393 35.8418 30.6219 25.8448C41.4045 15.8478 54.4861 8.66427 68.7081 4.93058C82.93 1.19689 97.8533 1.02826 112.156 4.43961C126.459 7.85097 139.699 14.737 150.705 24.4878C161.711 34.2386 170.142 46.5531 175.252 60.3406L91.412 91.4119L54.0992 172.666Z" stroke="white" stroke-width="4" mask="url(#path-2-outside-2_3800_71942)"/>
<mask id="path-3-outside-3_3800_71942" maskUnits="userSpaceOnUse" x="-0.176033" y="-7.91176e-06" width="152" height="176" fill="black">
<rect fill="white" x="-0.176033" y="-7.91176e-06" width="152" height="176"/>
<path d="M54.0992 172.666C42.5331 167.355 32.2341 159.636 23.891 150.024C15.5478 140.413 9.35269 129.131 5.71984 116.933C2.08699 104.735 1.10014 91.9026 2.82526 79.2927C4.55038 66.6828 8.94771 54.5865 15.7232 43.8125C22.4988 33.0386 31.4964 23.8353 42.1145 16.8181C52.7325 9.80081 64.7264 5.13126 77.2941 3.12163C89.8618 1.11201 102.714 1.80862 114.991 5.16491C127.267 8.52119 138.686 14.4598 148.484 22.5836L91.412 91.4119L54.0992 172.666Z"/>
</mask>
<path d="M54.0992 172.666C42.5331 167.355 32.2341 159.636 23.891 150.024C15.5478 140.413 9.35269 129.131 5.71984 116.933C2.08699 104.735 1.10014 91.9026 2.82526 79.2927C4.55038 66.6828 8.94771 54.5865 15.7232 43.8125C22.4988 33.0386 31.4964 23.8353 42.1145 16.8181C52.7325 9.80081 64.7264 5.13126 77.2941 3.12163C89.8618 1.11201 102.714 1.80862 114.991 5.16491C127.267 8.52119 138.686 14.4598 148.484 22.5836L91.412 91.4119L54.0992 172.666Z" fill="#00E0E0"/>
<path d="M54.0992 172.666C42.5331 167.355 32.2341 159.636 23.891 150.024C15.5478 140.413 9.35269 129.131 5.71984 116.933C2.08699 104.735 1.10014 91.9026 2.82526 79.2927C4.55038 66.6828 8.94771 54.5865 15.7232 43.8125C22.4988 33.0386 31.4964 23.8353 42.1145 16.8181C52.7325 9.80081 64.7264 5.13126 77.2941 3.12163C89.8618 1.11201 102.714 1.80862 114.991 5.16491C127.267 8.52119 138.686 14.4598 148.484 22.5836L91.412 91.4119L54.0992 172.666Z" stroke="white" stroke-width="4" mask="url(#path-3-outside-3_3800_71942)"/>
<mask id="path-4-outside-4_3800_71942" maskUnits="userSpaceOnUse" x="-0.176033" y="15" width="94" height="161" fill="black">
<rect fill="white" x="-0.176033" y="15" width="94" height="161"/>
<path d="M54.0992 172.666C39.8362 166.116 27.5484 155.928 18.4711 143.124C9.39377 130.32 3.8467 115.352 2.38742 99.7252C0.928129 84.0981 3.60805 68.3622 10.1578 54.0991C16.7076 39.836 26.8964 27.5483 39.7002 18.471L91.412 91.4119L54.0992 172.666Z"/>
</mask>
<path d="M54.0992 172.666C39.8362 166.116 27.5484 155.928 18.4711 143.124C9.39377 130.32 3.8467 115.352 2.38742 99.7252C0.928129 84.0981 3.60805 68.3622 10.1578 54.0991C16.7076 39.836 26.8964 27.5483 39.7002 18.471L91.412 91.4119L54.0992 172.666Z" fill="#36B0FF"/>
<path d="M54.0992 172.666C39.8362 166.116 27.5484 155.928 18.4711 143.124C9.39377 130.32 3.8467 115.352 2.38742 99.7252C0.928129 84.0981 3.60805 68.3622 10.1578 54.0991C16.7076 39.836 26.8964 27.5483 39.7002 18.471L91.412 91.4119L54.0992 172.666Z" stroke="white" stroke-width="4" mask="url(#path-4-outside-4_3800_71942)"/>
<mask id="path-5-outside-5_3800_71942" maskUnits="userSpaceOnUse" x="-1" y="73" width="177" height="110" fill="black">
<rect fill="white" x="-1" y="73" width="177" height="110"/>
<path d="M172.666 128.725C163.586 148.499 147.606 164.283 127.721 173.12C107.836 181.956 85.4118 183.238 64.6497 176.725C43.8877 170.212 26.2133 156.351 14.9386 137.74C3.66395 119.13 -0.437029 97.046 3.40418 75.6281L91.4119 91.4119L172.666 128.725Z"/>
</mask>
<path d="M172.666 128.725C163.586 148.499 147.606 164.283 127.721 173.12C107.836 181.956 85.4118 183.238 64.6497 176.725C43.8877 170.212 26.2133 156.351 14.9386 137.74C3.66395 119.13 -0.437029 97.046 3.40418 75.6281L91.4119 91.4119L172.666 128.725Z" fill="#517BF8"/>
<path d="M172.666 128.725C163.586 148.499 147.606 164.283 127.721 173.12C107.836 181.956 85.4118 183.238 64.6497 176.725C43.8877 170.212 26.2133 156.351 14.9386 137.74C3.66395 119.13 -0.437029 97.046 3.40418 75.6281L91.4119 91.4119L172.666 128.725Z" stroke="white" stroke-width="4" mask="url(#path-5-outside-5_3800_71942)"/>
</svg>
