<svg width="621" height="287" viewBox="0 0 621 287" fill="none" xmlns="http://www.w3.org/2000/svg">
<path d="M0 0H621V281C621 283.761 618.761 286 616 286H4.99999C2.23857 286 0 283.761 0 281V0Z" fill="white"/>
<path d="M0 0H621V33.8684H0V0Z" fill="#E5EAED"/>
<path d="M0 145H621V180H0V145Z" fill="#E5EAED"/>
<rect y="179" width="621" height="1" fill="#E1E7EA"/>
<path d="M0 255H621V281.046C621 283.807 618.761 286.046 616 286.046H4.99999C2.23857 286.046 0 283.807 0 281.046V255Z" fill="#E5EAED"/>
<rect x="17" y="12" width="133.193" height="10" rx="3" fill="#9BA1A6"/>
<rect x="17" y="45.1579" width="83.8045" height="10" rx="3" fill="#E5EAED"/>
<rect x="17" y="83.7302" width="124.709" height="10" rx="3" fill="#E5EAED"/>
<rect x="17" y="121.362" width="124.709" height="10" rx="3" fill="#E5EAED"/>
<rect x="171.369" y="45.1579" width="83.8045" height="10" rx="3" fill="#E5EAED"/>
<rect x="171.369" y="83.7302" width="124.709" height="10" rx="3" fill="#E5EAED"/>
<rect x="171.369" y="121.362" width="124.709" height="10" rx="3" fill="#E5EAED"/>
<rect x="325.771" y="45.1579" width="83.8045" height="10" rx="3" fill="#E5EAED"/>
<rect x="325.771" y="83.7302" width="124.709" height="10" rx="3" fill="#E5EAED"/>
<rect x="325.771" y="121.362" width="124.709" height="10" rx="3" fill="#E5EAED"/>
<rect x="480.172" y="45.1579" width="83.8045" height="10" rx="3" fill="#E5EAED"/>
<rect x="480.172" y="83.7302" width="124.709" height="10" rx="3" fill="#E5EAED"/>
<rect x="480.172" y="121.362" width="124.709" height="10" rx="3" fill="#E5EAED"/>
<rect x="17" y="190.98" width="90.0756" height="10" rx="3" fill="#E5EAED"/>
<rect x="17" y="229.553" width="124.709" height="10" rx="3" fill="#E5EAED"/>
<rect x="171.369" y="190.98" width="90.0756" height="10" rx="3" fill="#E5EAED"/>
<rect x="171.369" y="229.553" width="124.709" height="10" rx="3" fill="#E5EAED"/>
<rect x="325.771" y="190.98" width="90.0756" height="10" rx="3" fill="#E5EAED"/>
<rect x="325.771" y="229.553" width="124.709" height="10" rx="3" fill="#E5EAED"/>
<rect x="480.172" y="190.98" width="90.0756" height="10" rx="3" fill="#E5EAED"/>
<rect x="480.172" y="229.553" width="124.709" height="10" rx="3" fill="#E5EAED"/>
<rect x="17" y="158" width="133.193" height="10" rx="3" fill="#9BA1A6"/>
<rect x="17" y="265" width="133.193" height="10" rx="3" fill="#9BA1A6"/>
<rect y="66" width="621" height="1" fill="#E1E7EA"/>
<rect y="105" width="621" height="1" fill="#E1E7EA"/>
<rect y="145" width="621" height="1" fill="#E1E7EA"/>
<rect y="212" width="621" height="1" fill="#E1E7EA"/>
<rect y="254" width="621" height="1" fill="#E1E7EA"/>
<rect x="155" y="37" width="1" height="24" fill="#E1E7EA"/>
<rect x="310" y="37" width="1" height="24" fill="#E1E7EA"/>
<rect x="465" y="37" width="1" height="24" fill="#E1E7EA"/>
<rect x="155" y="184" width="1" height="24" fill="#E1E7EA"/>
<rect x="310" y="184" width="1" height="24" fill="#E1E7EA"/>
<rect x="465" y="184" width="1" height="24" fill="#E1E7EA"/>
</svg>
