<svg width="620" height="286" viewBox="0 0 620 286" fill="none" xmlns="http://www.w3.org/2000/svg">
<path d="M0 0H620V281C620 283.761 617.761 286 615 286H5C2.23857 286 0 283.761 0 281V0Z" fill="white"/>
<rect x="16.9725" y="84" width="124.508" height="10" rx="3" fill="#E5EAED"/>
<rect x="171.093" y="84" width="124.508" height="10" rx="3" fill="#E5EAED"/>
<rect x="325.246" y="84" width="124.508" height="10" rx="3" fill="#E5EAED"/>
<rect x="479.399" y="84" width="124.508" height="10" rx="3" fill="#E5EAED"/>
<rect x="16.9725" y="48" width="124.508" height="10" rx="3" fill="#E5EAED"/>
<rect x="171.093" y="48" width="124.508" height="10" rx="3" fill="#E5EAED"/>
<rect x="325.246" y="48" width="124.508" height="10" rx="3" fill="#E5EAED"/>
<rect x="479.399" y="48" width="124.508" height="10" rx="3" fill="#E5EAED"/>
<rect x="16.9725" y="120" width="124.508" height="10" rx="3" fill="#E5EAED"/>
<rect x="171.093" y="120" width="124.508" height="10" rx="3" fill="#E5EAED"/>
<rect x="325.246" y="120" width="124.508" height="10" rx="3" fill="#E5EAED"/>
<rect x="479.399" y="120" width="124.508" height="10" rx="3" fill="#E5EAED"/>
<rect x="16.9725" y="156" width="124.508" height="10" rx="3" fill="#E5EAED"/>
<rect x="171.093" y="156" width="124.508" height="10" rx="3" fill="#E5EAED"/>
<rect x="325.246" y="156" width="124.508" height="10" rx="3" fill="#E5EAED"/>
<rect x="479.399" y="156" width="124.508" height="10" rx="3" fill="#E5EAED"/>
<rect x="17" y="192" width="124.508" height="10" rx="3" fill="#E5EAED"/>
<rect x="171.12" y="192" width="124.508" height="10" rx="3" fill="#E5EAED"/>
<rect x="325.273" y="192" width="124.508" height="10" rx="3" fill="#E5EAED"/>
<rect x="479.427" y="192" width="124.508" height="10" rx="3" fill="#E5EAED"/>
<rect x="16.9725" y="228" width="124.508" height="10" rx="3" fill="#E5EAED"/>
<rect x="171.093" y="228" width="124.508" height="10" rx="3" fill="#E5EAED"/>
<rect x="325.246" y="228" width="124.508" height="10" rx="3" fill="#E5EAED"/>
<rect x="479.399" y="228" width="124.508" height="10" rx="3" fill="#E5EAED"/>
<rect x="16.9725" y="264" width="124.508" height="10" rx="3" fill="#E5EAED"/>
<rect x="171.093" y="264" width="124.508" height="10" rx="3" fill="#E5EAED"/>
<rect x="325.246" y="264" width="124.508" height="10" rx="3" fill="#E5EAED"/>
<rect x="479.399" y="264" width="124.508" height="10" rx="3" fill="#E5EAED"/>
<rect y="178" width="620" height="1" fill="#E1E7EA"/>
<rect y="70" width="620" height="1" fill="#E1E7EA"/>
<rect y="34" width="620" height="1" fill="#E1E7EA"/>
<rect y="106" width="620" height="1" fill="#E1E7EA"/>
<rect y="142" width="620" height="1" fill="#E1E7EA"/>
<rect y="214" width="620" height="1" fill="#E1E7EA"/>
<rect y="250" width="620" height="1" fill="#E1E7EA"/>
<rect x="16" y="12.1582" width="83.8045" height="10" rx="3" fill="#E5EAED"/>
<rect x="170.369" y="12.1582" width="83.8045" height="10" rx="3" fill="#E5EAED"/>
<rect x="324.771" y="12.1582" width="83.8045" height="10" rx="3" fill="#E5EAED"/>
<rect x="479.172" y="12.1582" width="83.8045" height="10" rx="3" fill="#E5EAED"/>
<rect x="154" y="4" width="1" height="24" fill="#E1E7EA"/>
<rect x="309" y="4" width="1" height="24" fill="#E1E7EA"/>
<rect x="464" y="4" width="1" height="24" fill="#E1E7EA"/>
</svg>
