<svg width="560" height="174" viewBox="0 0 560 174" fill="none" xmlns="http://www.w3.org/2000/svg">
<rect x="60" y="163.434" width="63" height="10" rx="3" fill="#E5EAED"/>
<rect x="159" y="163.434" width="63" height="10" rx="3" fill="#E5EAED"/>
<rect x="258" y="163.434" width="63" height="10" rx="3" fill="#E5EAED"/>
<rect x="357" y="163.434" width="63" height="10" rx="3" fill="#E5EAED"/>
<rect x="456" y="163.434" width="63" height="10" rx="3" fill="#E5EAED"/>
<rect width="33.8539" height="10" rx="3" fill="#E5EAED"/>
<rect y="49.1816" width="33.8539" height="10" rx="3" fill="#E5EAED"/>
<rect y="100.633" width="33.8539" height="10" rx="3" fill="#E5EAED"/>
<rect y="149.814" width="33.8539" height="10" rx="3" fill="#E5EAED"/>
<rect x="40" y="3" width="520" height="1" fill="#D9D9D9"/>
<rect x="560" y="3" width="155" height="0.999993" transform="rotate(90 560 3)" fill="#D9D9D9"/>
<rect x="40" y="3" width="155" height="0.999993" transform="rotate(90 40 3)" fill="#D9D9D9"/>
<rect x="40" y="54" width="520" height="1" fill="#D9D9D9"/>
<rect x="40" y="105" width="520" height="1" fill="#D9D9D9"/>
<rect x="40" y="157" width="520" height="1" fill="#D9D9D9"/>
<rect x="123" y="138.087" width="18.913" height="63" transform="rotate(90 123 138.087)" fill="#517BF8"/>
<rect x="123" y="106" width="32" height="63" transform="rotate(90 123 106)" fill="#36B0FF"/>
<rect x="123" y="106" width="32" height="63" transform="rotate(90 123 106)" fill="#36B0FF"/>
<rect x="123" y="106" width="32" height="63" transform="rotate(90 123 106)" fill="#36B0FF"/>
<rect x="123" y="89" width="17" height="63" transform="rotate(90 123 89)" fill="#36B0FF"/>
<rect x="123" y="89" width="17" height="63" transform="rotate(90 123 89)" fill="#36B0FF"/>
<rect x="123" y="89" width="17" height="63" transform="rotate(90 123 89)" fill="#00E0E0"/>
<rect x="123" y="78" width="11" height="63" transform="rotate(90 123 78)" fill="#36B0FF"/>
<rect x="123" y="78" width="11" height="63" transform="rotate(90 123 78)" fill="#36B0FF"/>
<rect x="123" y="78" width="11" height="63" transform="rotate(90 123 78)" fill="#00BA83"/>
<rect x="123" y="67" width="11" height="63" transform="rotate(90 123 67)" fill="#36B0FF"/>
<rect x="123" y="67" width="11" height="63" transform="rotate(90 123 67)" fill="#36B0FF"/>
<rect x="123" y="67" width="11" height="63" transform="rotate(90 123 67)" fill="#6CDF46"/>
<rect x="222" y="117.057" width="39.9433" height="63" transform="rotate(90 222 117.057)" fill="#517BF8"/>
<rect x="222" y="76" width="41" height="63" transform="rotate(90 222 76)" fill="#36B0FF"/>
<rect width="14" height="63" transform="matrix(7.23098e-08 -1 -1 -2.64236e-08 222 76)" fill="#00E0E0"/>
<rect width="23" height="63" transform="matrix(7.23098e-08 -1 -1 -2.64236e-08 222 62)" fill="#00BA83"/>
<rect x="222" y="29" width="10" height="63" transform="rotate(90 222 29)" fill="#6CDF46"/>
<rect x="321" y="102" width="55" height="63" transform="rotate(90 321 102)" fill="#517BF8"/>
<rect x="321" y="63" width="39" height="63" transform="rotate(90 321 63)" fill="#36B0FF"/>
<rect x="321" y="35" width="28" height="63" transform="rotate(90 321 35)" fill="#00E0E0"/>
<rect x="321" y="15" width="20" height="63" transform="rotate(90 321 15)" fill="#00BA83"/>
<rect width="11" height="63" transform="matrix(5.30426e-08 -1 -1 -3.60217e-08 321 15)" fill="#6CDF46"/>
<rect x="420" y="132.348" width="24.6525" height="63" transform="rotate(90 420 132.348)" fill="#517BF8"/>
<rect x="420" y="107" width="26" height="63" transform="rotate(90 420 107)" fill="#36B0FF"/>
<rect width="9" height="63" transform="matrix(1.1716e-07 -1 -1 -1.63083e-08 420 107)" fill="#00E0E0"/>
<rect width="14" height="63" transform="matrix(1.1716e-07 -1 -1 -1.63083e-08 420 98)" fill="#00BA83"/>
<rect x="420" y="78" width="6" height="63" transform="rotate(90 420 78)" fill="#6CDF46"/>
<rect x="519" y="138.087" width="18.913" height="63" transform="rotate(90 519 138.087)" fill="#517BF8"/>
<rect x="519" y="106" width="32" height="63" transform="rotate(90 519 106)" fill="#36B0FF"/>
<rect x="519" y="106" width="32" height="63" transform="rotate(90 519 106)" fill="#36B0FF"/>
<rect x="519" y="106" width="32" height="63" transform="rotate(90 519 106)" fill="#36B0FF"/>
<rect x="519" y="89" width="17" height="63" transform="rotate(90 519 89)" fill="#36B0FF"/>
<rect x="519" y="89" width="17" height="63" transform="rotate(90 519 89)" fill="#36B0FF"/>
<rect x="519" y="89" width="17" height="63" transform="rotate(90 519 89)" fill="#00E0E0"/>
<rect x="519" y="78" width="11" height="63" transform="rotate(90 519 78)" fill="#36B0FF"/>
<rect x="519" y="78" width="11" height="63" transform="rotate(90 519 78)" fill="#36B0FF"/>
<rect x="519" y="78" width="11" height="63" transform="rotate(90 519 78)" fill="#00BA83"/>
<rect x="519" y="67" width="11" height="63" transform="rotate(90 519 67)" fill="#36B0FF"/>
<rect x="519" y="67" width="11" height="63" transform="rotate(90 519 67)" fill="#36B0FF"/>
<rect x="519" y="67" width="11" height="63" transform="rotate(90 519 67)" fill="#6CDF46"/>
</svg>
