<svg width="560" height="174" viewBox="0 0 560 174" fill="none" xmlns="http://www.w3.org/2000/svg">
<rect x="69.1184" y="163.434" width="66.2973" height="10" rx="3" fill="#2B2D2E"/>
<rect x="170.68" y="163.434" width="64.8867" height="10" rx="3" fill="#2B2D2E"/>
<rect x="272.242" y="163.434" width="66.2973" height="10" rx="3" fill="#2B2D2E"/>
<rect x="376.625" y="163.434" width="64.8867" height="10" rx="3" fill="#2B2D2E"/>
<rect x="479.598" y="163.434" width="66.2973" height="10" rx="3" fill="#2B2D2E"/>
<rect width="33.8539" height="10" rx="3" fill="#2B2D2E"/>
<rect y="49.1816" width="33.8539" height="10" rx="3" fill="#2B2D2E"/>
<rect y="100.633" width="33.8539" height="10" rx="3" fill="#2B2D2E"/>
<rect y="149.814" width="33.8539" height="10" rx="3" fill="#2B2D2E"/>
<rect x="40" y="3" width="520" height="1" fill="#44474A"/>
<rect x="560" y="3" width="155" height="0.999993" transform="rotate(90 560 3)" fill="#44474A"/>
<rect x="40" y="3" width="155" height="0.999993" transform="rotate(90 40 3)" fill="#44474A"/>
<rect x="40" y="54" width="520" height="1" fill="#44474A"/>
<rect x="40" y="105" width="520" height="1" fill="#44474A"/>
<rect x="40" y="157" width="520" height="1" fill="#44474A"/>
<rect x="133" y="26" width="131" height="63" transform="rotate(90 133 26)" fill="#517BF8"/>
<rect x="236" y="104" width="53" height="63" transform="rotate(90 236 104)" fill="#36B0FF"/>
<rect x="338.361" y="4.04297" width="153.204" height="62.9214" transform="rotate(90 338.361 4.04297)" fill="#00E0E0"/>
<rect x="441" y="53" width="104" height="63" transform="rotate(90 441 53)" fill="#00BA83"/>
<rect x="543" y="26" width="131" height="63" transform="rotate(90 543 26)" fill="#6CDF46"/>
</svg>
