<svg width="560" height="170" viewBox="0 0 560 170" fill="none" xmlns="http://www.w3.org/2000/svg">
<rect x="60" y="159.434" width="63" height="10" rx="3" fill="#2B2D2E"/>
<rect x="159" y="159.434" width="63" height="10" rx="3" fill="#2B2D2E"/>
<rect x="258" y="159.434" width="63" height="10" rx="3" fill="#2B2D2E"/>
<rect x="357" y="159.434" width="63" height="10" rx="3" fill="#2B2D2E"/>
<rect x="456" y="159.434" width="63" height="10" rx="3" fill="#2B2D2E"/>
<rect y="10" width="33.8539" height="10" rx="3" fill="#2B2D2E"/>
<rect y="41" width="33.8539" height="10" rx="3" fill="#2B2D2E"/>
<rect y="72" width="33.8539" height="10" rx="3" fill="#2B2D2E"/>
<rect y="103" width="33.8539" height="10" rx="3" fill="#2B2D2E"/>
<rect y="134" width="33.8539" height="10" rx="3" fill="#2B2D2E"/>
<rect x="497" y="67" width="20" height="457" transform="rotate(90 497 67)" fill="#00E0E0"/>
<rect x="291" y="98" width="20" height="251" transform="rotate(90 291 98)" fill="#00BA83"/>
<rect x="497" y="5" width="20" height="457" transform="rotate(90 497 5)" fill="#517BF8"/>
<rect x="291" y="36" width="20" height="251" transform="rotate(90 291 36)" fill="#36B0FF"/>
<rect x="345" y="129" width="20" height="305" transform="rotate(90 345 129)" fill="#6CDF46"/>
<rect x="40" width="520" height="1" fill="#44474A"/>
<rect x="560" width="155" height="0.999993" transform="rotate(90 560 0)" fill="#44474A"/>
<rect x="40" width="155" height="0.999993" transform="rotate(90 40 0)" fill="#44474A"/>
<rect x="40" y="92" width="520" height="1" fill="#44474A"/>
<rect x="40" y="61" width="520" height="1" fill="#44474A"/>
<rect x="40" y="30" width="520" height="1" fill="#44474A"/>
<rect x="40" y="123" width="520" height="1" fill="#44474A"/>
<rect x="40" y="154" width="520" height="1" fill="#44474A"/>
</svg>
