<svg width="560" height="170" viewBox="0 0 560 170" fill="none" xmlns="http://www.w3.org/2000/svg">
<rect x="60" y="159.434" width="63" height="10" rx="3" fill="#2B2D2E"/>
<rect x="159" y="159.434" width="63" height="10" rx="3" fill="#2B2D2E"/>
<rect x="258" y="159.434" width="63" height="10" rx="3" fill="#2B2D2E"/>
<rect x="357" y="159.434" width="63" height="10" rx="3" fill="#2B2D2E"/>
<rect x="456" y="159.434" width="63" height="10" rx="3" fill="#2B2D2E"/>
<rect y="10" width="33.8539" height="10" rx="3" fill="#2B2D2E"/>
<rect y="41" width="33.8539" height="10" rx="3" fill="#2B2D2E"/>
<rect y="72" width="33.8539" height="10" rx="3" fill="#2B2D2E"/>
<rect y="103" width="33.8539" height="10" rx="3" fill="#2B2D2E"/>
<rect y="134" width="33.8539" height="10" rx="3" fill="#2B2D2E"/>
<rect x="119.015" y="149" width="79.0145" height="20" transform="rotate(-180 119.015 149)" fill="#517BF8"/>
<rect x="253" y="149" width="134" height="20" transform="rotate(-180 253 149)" fill="#36B0FF"/>
<rect x="253" y="149" width="134" height="20" transform="rotate(-180 253 149)" fill="#36B0FF"/>
<rect x="253" y="149" width="134" height="20" transform="rotate(-180 253 149)" fill="#36B0FF"/>
<rect x="323" y="149" width="70" height="20" transform="rotate(-180 323 149)" fill="#36B0FF"/>
<rect x="323" y="149" width="70" height="20" transform="rotate(-180 323 149)" fill="#36B0FF"/>
<rect x="323" y="149" width="70" height="20" transform="rotate(-180 323 149)" fill="#00E0E0"/>
<rect x="370" y="149" width="47" height="20" transform="rotate(-180 370 149)" fill="#36B0FF"/>
<rect x="370" y="149" width="47" height="20" transform="rotate(-180 370 149)" fill="#36B0FF"/>
<rect x="370" y="149" width="47" height="20" transform="rotate(-180 370 149)" fill="#00BA83"/>
<rect x="416" y="149" width="46" height="20" transform="rotate(-180 416 149)" fill="#36B0FF"/>
<rect x="416" y="149" width="46" height="20" transform="rotate(-180 416 149)" fill="#36B0FF"/>
<rect x="416" y="149" width="46" height="20" transform="rotate(-180 416 149)" fill="#6CDF46"/>
<rect x="40" width="520" height="1" fill="#44474A"/>
<rect x="560" width="155" height="0.999993" transform="rotate(90 560 0)" fill="#44474A"/>
<rect x="40" width="155" height="0.999993" transform="rotate(90 40 0)" fill="#44474A"/>
<rect x="40" y="92" width="520" height="1" fill="#44474A"/>
<rect x="40" y="61" width="520" height="1" fill="#44474A"/>
<rect x="40" y="30" width="520" height="1" fill="#44474A"/>
<rect x="40" y="123" width="520" height="1" fill="#44474A"/>
<rect x="40" y="154" width="520" height="1" fill="#44474A"/>
<rect x="91" y="25" width="51" height="20" transform="rotate(-180 91 25)" fill="#517BF8"/>
<rect x="179" y="25" width="88" height="20" transform="rotate(-180 179 25)" fill="#36B0FF"/>
<rect x="179" y="25" width="88" height="20" transform="rotate(-180 179 25)" fill="#36B0FF"/>
<rect x="179" y="25" width="88" height="20" transform="rotate(-180 179 25)" fill="#36B0FF"/>
<rect x="225" y="25" width="46" height="20" transform="rotate(-180 225 25)" fill="#36B0FF"/>
<rect x="225" y="25" width="46" height="20" transform="rotate(-180 225 25)" fill="#36B0FF"/>
<rect x="225" y="25" width="46" height="20" transform="rotate(-180 225 25)" fill="#00E0E0"/>
<rect x="256" y="25" width="31" height="20" transform="rotate(-180 256 25)" fill="#36B0FF"/>
<rect x="256" y="25" width="31" height="20" transform="rotate(-180 256 25)" fill="#36B0FF"/>
<rect x="256" y="25" width="31" height="20" transform="rotate(-180 256 25)" fill="#00BA83"/>
<rect x="286" y="25" width="30" height="20" transform="rotate(-180 286 25)" fill="#36B0FF"/>
<rect x="286" y="25" width="30" height="20" transform="rotate(-180 286 25)" fill="#36B0FF"/>
<rect x="286" y="25" width="30" height="20" transform="rotate(-180 286 25)" fill="#6CDF46"/>
<rect x="170" y="56" width="130" height="20" transform="rotate(-180 170 56)" fill="#517BF8"/>
<rect x="303" y="56" width="133" height="20" transform="rotate(-180 303 56)" fill="#36B0FF"/>
<rect width="47" height="20" transform="matrix(1 5.07746e-08 3.14223e-07 -1 303 56)" fill="#00E0E0"/>
<rect width="74" height="20" transform="matrix(1 5.07746e-08 3.14223e-07 -1 350 56)" fill="#00BA83"/>
<rect x="456" y="56" width="32" height="20" transform="rotate(-180 456 56)" fill="#6CDF46"/>
<rect x="205" y="87" width="165" height="20" transform="rotate(-180 205 87)" fill="#517BF8"/>
<rect x="321" y="87" width="116" height="20" transform="rotate(-180 321 87)" fill="#36B0FF"/>
<rect x="405" y="87" width="84" height="20" transform="rotate(-180 405 87)" fill="#00E0E0"/>
<rect x="465" y="87" width="60" height="20" transform="rotate(-180 465 87)" fill="#00BA83"/>
<rect width="33" height="20" transform="matrix(1 4.93366e-08 3.83375e-07 -1 465 87)" fill="#6CDF46"/>
<rect x="144.226" y="118" width="104.227" height="20" transform="rotate(-180 144.226 118)" fill="#517BF8"/>
<rect x="251" y="118" width="107" height="20" transform="rotate(-180 251 118)" fill="#36B0FF"/>
<rect width="38" height="20" transform="matrix(1 5.25087e-08 2.60901e-07 -1 251 118)" fill="#00E0E0"/>
<rect width="59" height="20" transform="matrix(1 5.25087e-08 2.60901e-07 -1 289 118)" fill="#00BA83"/>
<rect x="374" y="118" width="26" height="20" transform="rotate(-180 374 118)" fill="#6CDF46"/>
</svg>
