<svg width="621" height="286" viewBox="0 0 621 286" fill="none" xmlns="http://www.w3.org/2000/svg">
<path d="M0 0H620V281C620 283.761 617.761 286 615 286H5C2.23857 286 0 283.761 0 281V0Z" fill="white"/>
<path d="M0 254H621V281C621 283.761 618.761 286 616 286H4.99999C2.23857 286 0 283.761 0 281V254Z" fill="#E5EAED"/>
<rect x="17" y="29" width="133.193" height="10" rx="3" fill="#E5EAED"/>
<rect x="17" y="84" width="97" height="10" rx="3" fill="#E5EAED"/>
<rect x="17" y="121" width="97" height="10" rx="3" fill="#E5EAED"/>
<rect x="17" y="157" width="97" height="10" rx="3" fill="#E5EAED"/>
<rect x="17" y="194" width="97" height="10" rx="3" fill="#E5EAED"/>
<rect x="17" y="230" width="97" height="10" rx="3" fill="#E5EAED"/>
<rect x="242" y="84" width="49" height="10" rx="3" fill="#E5EAED"/>
<rect x="242" y="121" width="49" height="10" rx="3" fill="#E5EAED"/>
<rect x="242" y="157" width="49" height="10" rx="3" fill="#E5EAED"/>
<rect x="242" y="194" width="49" height="10" rx="3" fill="#E5EAED"/>
<rect x="242" y="230" width="49" height="10" rx="3" fill="#E5EAED"/>
<rect x="384" y="84" width="49" height="10" rx="3" fill="#E5EAED"/>
<rect x="384" y="121" width="49" height="10" rx="3" fill="#E5EAED"/>
<rect x="384" y="157" width="49" height="10" rx="3" fill="#E5EAED"/>
<rect x="384" y="194" width="49" height="10" rx="3" fill="#E5EAED"/>
<rect x="384" y="230" width="49" height="10" rx="3" fill="#E5EAED"/>
<rect x="526" y="84" width="49" height="10" rx="3" fill="#E5EAED"/>
<rect x="526" y="121" width="49" height="10" rx="3" fill="#E5EAED"/>
<rect x="526" y="157" width="49" height="10" rx="3" fill="#E5EAED"/>
<rect x="526" y="194" width="49" height="10" rx="3" fill="#E5EAED"/>
<rect x="526" y="230" width="49" height="10" rx="3" fill="#E5EAED"/>
<rect x="242" y="265" width="49" height="10" rx="3" fill="#9BA1A6"/>
<rect x="384" y="265" width="49" height="10" rx="3" fill="#9BA1A6"/>
<rect x="526" y="265" width="49" height="10" rx="3" fill="#9BA1A6"/>
<rect x="231" y="45" width="70" height="10" rx="3" fill="#E5EAED"/>
<rect x="373" y="45" width="70" height="10" rx="3" fill="#E5EAED"/>
<rect x="286" y="11" width="102" height="10" rx="3" fill="#E5EAED"/>
<rect x="479" width="141" height="66" fill="#E5EAED"/>
<rect x="515" y="29" width="70" height="10" rx="3" fill="#9BA1A6"/>
<rect x="17" y="265" width="133.193" height="10" rx="3" fill="#9BA1A6"/>
<rect x="195" y="33" width="284" height="1" fill="#E1E7EA"/>
<rect y="66" width="620" height="1" fill="#E1E7EA"/>
<rect x="194" width="1" height="66" fill="#E1E7EA"/>
<rect x="336" y="34" width="1" height="32" fill="#E1E7EA"/>
<rect x="478" width="1" height="66" fill="#E1E7EA"/>
<rect y="104" width="620" height="1" fill="#E1E7EA"/>
<rect y="142" width="620" height="1" fill="#E1E7EA"/>
<rect y="180" width="620" height="1" fill="#E1E7EA"/>
<rect y="218" width="620" height="1" fill="#E1E7EA"/>
</svg>
