<?xml version="1.0" encoding="utf-8"?>
<!-- Generator: Adobe Illustrator 24.3.0, SVG Export Plug-In . SVG Version: 6.00 Build 0)  -->
<svg version="1.1" id="Layer_1" xmlns="http://www.w3.org/2000/svg" xmlns:xlink="http://www.w3.org/1999/xlink" x="0px" y="0px"
	 viewBox="0 0 18 18" style="enable-background:new 0 0 18 18;" xml:space="preserve">
<style type="text/css">
	.st0{fill:#FFFFFF;}
</style>
<g>
	<path class="st0" d="M17.6,10H9.6l5.2,4.9c0.2,0.2,0.5,0.2,0.7,0c1.3-1.1,2.2-2.7,2.4-4.4C18.1,10.3,17.9,10,17.6,10z M17,8
		c-0.3-3.7-3.4-6.7-7.4-7C9.3,1,9,1.2,9,1.5v7h7.4C16.8,8.5,17.1,8.3,17,8z M7.4,10V2.6c0-0.3-0.3-0.5-0.6-0.5
		C2.9,2.6-0.1,5.9,0,9.8c0.1,4,3.8,7.3,8,7.2c1.7,0,3.2-0.5,4.5-1.4c0.3-0.2,0.3-0.5,0.1-0.8L7.4,10z"/>
</g>
</svg>
