<?xml version="1.0" encoding="utf-8"?>
<!-- Generator: Adobe Illustrator 24.3.0, SVG Export Plug-In . SVG Version: 6.00 Build 0)  -->
<svg version="1.1" id="Layer_1" xmlns="http://www.w3.org/2000/svg" xmlns:xlink="http://www.w3.org/1999/xlink" x="0px" y="0px"
	 viewBox="0 0 18 18" style="enable-background:new 0 0 18 18;" xml:space="preserve">
<style type="text/css">
	.st0{fill:#FFFFFF;}
</style>
<path class="st0" d="M2.3,16.3C2.3,17.2,3,18,3.9,18l0,0h10.1c0.9,0,1.7-0.8,1.7-1.7l0,0V4.5H2.3V16.3z M11.8,7.3
	c0-0.3,0.3-0.6,0.6-0.6c0.3,0,0.6,0.3,0.6,0.6v7.9c0,0.3-0.3,0.6-0.6,0.6c-0.3,0-0.6-0.3-0.6-0.6V7.3z M8.4,7.3C8.4,7,8.7,6.8,9,6.8
	S9.6,7,9.6,7.3v7.9c0,0.3-0.3,0.6-0.6,0.6s-0.6-0.3-0.6-0.6V7.3z M5.1,7.3c0-0.3,0.3-0.6,0.6-0.6c0.3,0,0.6,0.3,0.6,0.6v7.9
	c0,0.3-0.3,0.6-0.6,0.6c-0.3,0-0.6-0.3-0.6-0.6V7.3z M16.3,1.1h-4.2l-0.3-0.7C11.6,0.2,11.3,0,11,0H7C6.7,0,6.4,0.2,6.2,0.5L5.9,1.1
	H1.7c-0.3,0-0.6,0.3-0.6,0.6v1.1c0,0.3,0.3,0.6,0.6,0.6h14.6c0.3,0,0.6-0.3,0.6-0.6V1.7C16.9,1.4,16.6,1.1,16.3,1.1z"/>
</svg>
