<?xml version="1.0" encoding="utf-8"?>
<!-- Generator: Adobe Illustrator 24.3.0, SVG Export Plug-In . SVG Version: 6.00 Build 0)  -->
<svg version="1.1" id="Layer_1" xmlns="http://www.w3.org/2000/svg" xmlns:xlink="http://www.w3.org/1999/xlink" x="0px" y="0px"
	 viewBox="0 0 18 18" style="enable-background:new 0 0 18 18;" xml:space="preserve">
<style type="text/css">
	.st0{fill:#FFFFFF;}
</style>
<g>
	<path class="st0" d="M0,2v0.7v8.9c0,0.4,0.3,0.6,0.6,0.6h4.8V5.4c0-0.7,0.6-1.4,1.4-1.4h4.1V2c0-0.4-0.3-0.6-0.6-0.6H1.4H0.6
		C0.3,1.4,0,1.6,0,2z"/>
	<path class="st0" d="M7.2,6.5v0.7v2.7v1.4V14v0.6V16c0,0.4,0.3,0.6,0.6,0.6h9.5c0.4,0,0.6-0.3,0.6-0.6V6.5c0-0.4-0.3-0.6-0.6-0.6
		h-4.1h-0.6H9.9H8.6H7.9C7.5,5.9,7.2,6.2,7.2,6.5z"/>
</g>
</svg>
