<?xml version="1.0" encoding="utf-8"?>
<!-- Generator: Adobe Illustrator 24.3.0, SVG Export Plug-In . SVG Version: 6.00 Build 0)  -->
<svg version="1.1" id="Layer_1" xmlns="http://www.w3.org/2000/svg" xmlns:xlink="http://www.w3.org/1999/xlink" x="0px" y="0px"
	 viewBox="0 0 18 18" style="enable-background:new 0 0 18 18;" xml:space="preserve">
<style type="text/css">
	.st0{fill:#FFFFFF;}
</style>
<path class="st0" d="M17.5,5l-1.6,1.6c-0.2,0.2-0.4,0.2-0.6,0l-3.9-3.9c-0.2-0.2-0.2-0.4,0-0.6L13,0.5c0.7-0.7,1.7-0.7,2.4,0
	l2.1,2.1C18.2,3.3,18.2,4.3,17.5,5z M10,3.5l-9.2,9.2L0,17c-0.1,0.6,0.4,1.1,1,1l4.3-0.7L14.5,8c0.2-0.2,0.2-0.4,0-0.6l-3.9-3.9
	C10.4,3.3,10.2,3.3,10,3.5L10,3.5z M4.4,11.9c-0.2-0.2-0.2-0.5,0-0.7l5.4-5.4c0.2-0.2,0.5-0.2,0.7,0c0.2,0.2,0.2,0.5,0,0.7l-5.4,5.4
	C4.9,12.1,4.6,12.1,4.4,11.9L4.4,11.9z M3.1,14.9h1.7v1.3l-2.3,0.4l-1.1-1.1l0.4-2.3h1.3V14.9z"/>
</svg>
