<?xml version="1.0" encoding="utf-8"?>
<!-- Generator: Adobe Illustrator 24.3.0, SVG Export Plug-In . SVG Version: 6.00 Build 0)  -->
<svg version="1.1" id="Layer_1" xmlns="http://www.w3.org/2000/svg" xmlns:xlink="http://www.w3.org/1999/xlink" x="0px" y="0px"
	 viewBox="0 0 18 18" style="enable-background:new 0 0 18 18;" xml:space="preserve">
<style type="text/css">
	.st0{fill:#FFFFFF;}
</style>
<g>
	<path class="st0" d="M5.1,7.7H0.6C0.3,7.7,0,8,0,8.4v7.7C0,17.2,0.8,18,1.9,18h3.2c0.4,0,0.6-0.3,0.6-0.6v-9C5.8,8,5.5,7.7,5.1,7.7
		z M16.1,0H1.9C0.8,0,0,0.8,0,1.9v3.2c0,0.4,0.3,0.6,0.6,0.6h16.7c0.4,0,0.6-0.3,0.6-0.6V1.9C18,0.8,17.2,0,16.1,0z M17.4,7.7h-9
		C8,7.7,7.7,8,7.7,8.4v9C7.7,17.7,8,18,8.4,18h7.7c1.1,0,1.9-0.8,1.9-1.9V8.4C18,8,17.7,7.7,17.4,7.7z"/>
</g>
</svg>
