<?xml version="1.0" encoding="utf-8"?>
<!-- Generator: Adobe Illustrator 24.3.0, SVG Export Plug-In . SVG Version: 6.00 Build 0)  -->
<svg version="1.1" id="Layer_1" xmlns="http://www.w3.org/2000/svg" xmlns:xlink="http://www.w3.org/1999/xlink" x="0px" y="0px"
	 viewBox="0 0 18 18" style="enable-background:new 0 0 18 18;" xml:space="preserve">
<style type="text/css">
	.st0{fill:#FFFFFF;}
</style>
<path class="st0" d="M12.8,7.6l-0.5-4.2h1.5c0.5,0,0.8-0.4,0.8-0.8V0.8c0-0.5-0.4-0.8-0.8-0.8H4.3c-0.5,0-0.8,0.4-0.8,0.8v1.7
	c0,0.5,0.4,0.8,0.8,0.8h1.5L5.3,7.6c-1.7,0.8-3,2.2-3,4c0,0.5,0.4,0.8,0.8,0.8h4.8V16v0.1l0.8,1.7c0.1,0.2,0.4,0.2,0.5,0l0.8-1.7V16
	v-3.7h4.8c0.5,0,0.8-0.4,0.8-0.8C15.9,9.7,14.5,8.3,12.8,7.6z"/>
</svg>
